<svg width="149" height="32" viewBox="0 0 149 32" fill="none" xmlns="http://www.w3.org/2000/svg">
<path d="M31.4375 22.4001V9.99916H33.4902V15.2751H40.1402V9.99916H42.1929V22.4001H40.1402V17.1157H33.4902V22.4001H31.4375Z" fill="white"/>
<path d="M42.7103 13.4344H44.8817L47.5027 20.1099H47.6638L50.3018 13.4344H52.4562L47.3161 25.6996H45.1616L46.5018 22.4849L42.7103 13.4344Z" fill="white"/>
<path d="M52.9821 25.6996V13.4344H54.7888L54.967 14.6728H55.1366C55.8774 13.6889 56.9037 13.1969 58.2156 13.1969C58.7585 13.1969 59.2815 13.2931 59.7848 13.4853C60.2881 13.6719 60.732 13.9603 61.1165 14.3505C61.5067 14.735 61.8177 15.227 62.0496 15.8264C62.2814 16.4201 62.3973 17.1185 62.3973 17.9215C62.3973 18.7188 62.2814 19.4143 62.0496 20.0081C61.8177 20.5962 61.5067 21.0882 61.1165 21.484C60.732 21.8742 60.2881 22.1654 59.7848 22.3576C59.2815 22.5499 58.7585 22.646 58.2156 22.646C56.8981 22.646 55.8717 22.1541 55.1366 21.1701H54.967V25.6996H52.9821ZM54.967 17.9215C54.967 18.9167 55.2214 19.6688 55.7304 20.1777C56.2393 20.6867 56.8924 20.9411 57.6897 20.9411C58.4871 20.9411 59.1402 20.6951 59.6491 20.2032C60.1637 19.7112 60.421 18.9507 60.421 17.9215C60.421 16.8923 60.1665 16.1318 59.6576 15.6398C59.1487 15.1422 58.4927 14.8934 57.6897 14.8934C56.8924 14.8934 56.2393 15.1478 55.7304 15.6568C55.2214 16.1657 54.967 16.9206 54.967 17.9215Z" fill="white"/>
<path d="M63.4406 17.9215C63.4406 17.1242 63.5565 16.4286 63.7884 15.8349C64.0202 15.2411 64.3426 14.7492 64.7554 14.359C65.1682 13.9632 65.6516 13.6719 66.2058 13.4853C66.76 13.2931 67.3679 13.1969 68.0295 13.1969C68.7589 13.1969 69.4149 13.3185 69.9973 13.5617C70.5854 13.8048 71.0746 14.1554 71.4647 14.6134C71.8606 15.0658 72.149 15.62 72.3299 16.2759C72.4543 16.7227 72.5165 17.209 72.5165 17.7349C72.5165 17.9837 72.5024 18.241 72.4741 18.5068H65.4594C65.5499 19.338 65.8269 19.9572 66.2906 20.3643C66.7543 20.7715 67.3339 20.9751 68.0295 20.9751C68.4479 20.9751 68.8353 20.8902 69.1915 20.7206C69.5534 20.5453 69.8277 20.305 70.0143 19.9996H72.1433C71.8888 20.8195 71.3969 21.467 70.6674 21.942C69.9379 22.4114 69.0586 22.646 68.0295 22.646C67.3679 22.646 66.7571 22.5471 66.1973 22.3492C65.6375 22.1512 65.1512 21.86 64.7384 21.4755C64.3256 21.0853 64.0061 20.5962 63.7799 20.0081C63.5537 19.4143 63.4406 18.7188 63.4406 17.9215ZM65.5103 16.98H70.4469C70.3055 16.2166 70.0058 15.6737 69.5478 15.3514C69.0897 15.0234 68.5836 14.8594 68.0295 14.8594C67.4018 14.8594 66.8618 15.0319 66.4094 15.3768C65.9626 15.7161 65.6629 16.2505 65.5103 16.98Z" fill="white"/>
<path d="M73.9161 22.4001V13.4344H75.7228L75.9009 14.8255H76.0705C76.3929 14.3505 76.8028 13.9999 77.3004 13.7737C77.8037 13.5475 78.4936 13.4344 79.3701 13.4344V15.2751C79.093 15.2468 78.8357 15.2326 78.5982 15.2326C77.7952 15.2326 77.1817 15.3995 76.7576 15.7331C76.2091 16.1685 75.9235 16.8725 75.9009 17.8451V22.4001H73.9161Z" fill="white"/>
<path d="M80.2437 22.4001V9.99916H82.2286V14.6728H82.3982C83.1277 13.6889 84.154 13.1969 85.4772 13.1969C86.0201 13.1969 86.5432 13.2931 87.0464 13.4853C87.5497 13.6719 87.9936 13.9603 88.3781 14.3505C88.7683 14.735 89.0793 15.227 89.3112 15.8264C89.543 16.4201 89.6589 17.1185 89.6589 17.9215C89.6589 18.7188 89.543 19.4143 89.3112 20.0081C89.0793 20.5962 88.7683 21.0882 88.3781 21.484C87.9936 21.8742 87.5497 22.1654 87.0464 22.3576C86.5432 22.5499 86.0201 22.646 85.4772 22.646C84.171 22.646 83.1446 22.1541 82.3982 21.1701H82.2286L82.0504 22.4001H80.2437ZM82.2286 17.9215C82.2286 18.9167 82.483 19.6688 82.992 20.1777C83.5009 20.6867 84.154 20.9411 84.9513 20.9411C85.7487 20.9411 86.4018 20.6951 86.9107 20.2032C87.4253 19.7112 87.6826 18.9507 87.6826 17.9215C87.6826 16.8923 87.4281 16.1318 86.9192 15.6398C86.4103 15.1422 85.7543 14.8934 84.9513 14.8934C84.154 14.8934 83.5009 15.1478 82.992 15.6568C82.483 16.1657 82.2286 16.9206 82.2286 17.9215Z" fill="white"/>
<path d="M91.05 22.4001V13.4344H92.8567L93.0348 14.8255H93.2045C93.5268 14.3505 93.9368 13.9999 94.4344 13.7737C94.9376 13.5475 95.6275 13.4344 96.504 13.4344V15.2751C96.2269 15.2468 95.9696 15.2326 95.7321 15.2326C94.9292 15.2326 94.3156 15.3995 93.8915 15.7331C93.343 16.1685 93.0574 16.8725 93.0348 17.8451V22.4001H91.05Z" fill="white"/>
<path d="M97.208 10.9492C97.208 10.6155 97.3183 10.3384 97.5388 10.1179C97.7594 9.89738 98.0365 9.78711 98.3701 9.78711C98.7037 9.78711 98.9808 9.89738 99.2013 10.1179C99.4219 10.3384 99.5321 10.6155 99.5321 10.9492C99.5321 11.2828 99.4219 11.5627 99.2013 11.7889C98.9865 12.0094 98.7094 12.1197 98.3701 12.1197C98.0365 12.1197 97.7594 12.0094 97.5388 11.7889C97.3183 11.5627 97.208 11.2828 97.208 10.9492ZM97.3777 22.4001V13.4344H99.3625V22.4001H97.3777Z" fill="white"/>
<path d="M100.745 17.9215C100.745 17.1242 100.861 16.4258 101.093 15.8264C101.325 15.227 101.636 14.735 102.026 14.3505C102.416 13.9603 102.863 13.6719 103.366 13.4853C103.869 13.2931 104.392 13.1969 104.935 13.1969C106.281 13.1969 107.307 13.6889 108.014 14.6728H108.184V9.99916H110.16V22.4001H108.354L108.184 21.1701H108.014C107.296 22.1541 106.27 22.646 104.935 22.646C104.392 22.646 103.869 22.5499 103.366 22.3576C102.863 22.1654 102.416 21.8742 102.026 21.484C101.636 21.0882 101.325 20.5962 101.093 20.0081C100.861 19.4143 100.745 18.7188 100.745 17.9215ZM102.73 17.9215C102.73 18.9507 102.984 19.7112 103.493 20.2032C104.002 20.6951 104.661 20.9411 105.47 20.9411C105.865 20.9411 106.227 20.8789 106.555 20.7545C106.889 20.6245 107.177 20.4322 107.421 20.1777C107.664 19.9233 107.85 19.6094 107.98 19.2362C108.116 18.8573 108.184 18.4191 108.184 17.9215C108.184 16.9376 107.929 16.1883 107.421 15.6737C106.912 15.1535 106.261 14.8934 105.47 14.8934C104.661 14.8934 104.002 15.1422 103.493 15.6398C102.984 16.1318 102.73 16.8923 102.73 17.9215Z" fill="white"/>
<path d="M111.551 17.5737C111.551 16.8329 111.667 16.1883 111.899 15.6398C112.131 15.0856 112.442 14.6304 112.832 14.2742C113.222 13.9123 113.669 13.6437 114.172 13.4684C114.676 13.2874 115.199 13.1969 115.742 13.1969C117.076 13.1969 118.102 13.6889 118.821 14.6728H118.99L119.16 13.4344H120.967V21.3398C120.967 22.2219 120.828 22.957 120.551 23.5451C120.274 24.1389 119.912 24.6111 119.465 24.9617C119.018 25.3179 118.518 25.5695 117.964 25.7166C117.41 25.8693 116.847 25.9456 116.276 25.9456C114.794 25.9456 113.703 25.6685 113.002 25.1143C112.368 24.6054 112.052 23.9382 112.052 23.1126C112.052 23.0334 112.055 22.9514 112.06 22.8666H114.054C114.048 22.9118 114.045 22.957 114.045 23.0023C114.045 23.3812 114.212 23.6809 114.546 23.9014C114.924 24.1502 115.496 24.2746 116.259 24.2746C116.632 24.2746 116.983 24.2209 117.311 24.1134C117.644 24.0117 117.936 23.8505 118.184 23.63C118.433 23.4094 118.628 23.1267 118.77 22.7818C118.917 22.4368 118.99 22.0212 118.99 21.5349V20.4746H118.821C118.102 21.4585 117.076 21.9505 115.742 21.9505C115.199 21.9505 114.676 21.86 114.172 21.6791C113.669 21.4981 113.222 21.2267 112.832 20.8648C112.442 20.4972 112.131 20.042 111.899 19.4992C111.667 18.9563 111.551 18.3145 111.551 17.5737ZM113.536 17.5737C113.536 18.4785 113.791 19.1514 114.3 19.5925C114.808 20.0279 115.467 20.2456 116.276 20.2456C116.672 20.2456 117.034 20.189 117.362 20.0759C117.695 19.9572 117.984 19.7847 118.227 19.5585C118.47 19.3323 118.657 19.0553 118.787 18.7273C118.922 18.3937 118.99 18.0091 118.99 17.5737C118.99 17.144 118.922 16.7623 118.787 16.4286C118.657 16.0893 118.47 15.8066 118.227 15.5804C117.984 15.3542 117.695 15.1846 117.362 15.0715C117.034 14.9527 116.672 14.8934 116.276 14.8934C115.467 14.8934 114.808 15.1139 114.3 15.555C113.791 15.996 113.536 16.669 113.536 17.5737Z" fill="white"/>
<path d="M122.358 17.9215C122.358 17.1242 122.474 16.4286 122.705 15.8349C122.937 15.2411 123.26 14.7492 123.672 14.359C124.085 13.9632 124.569 13.6719 125.123 13.4853C125.677 13.2931 126.285 13.1969 126.946 13.1969C127.676 13.1969 128.332 13.3185 128.914 13.5617C129.502 13.8048 129.992 14.1554 130.382 14.6134C130.778 15.0658 131.066 15.62 131.247 16.2759C131.371 16.7227 131.433 17.209 131.433 17.7349C131.433 17.9837 131.419 18.241 131.391 18.5068H124.376C124.467 19.338 124.744 19.9572 125.208 20.3643C125.671 20.7715 126.251 20.9751 126.946 20.9751C127.365 20.9751 127.752 20.8902 128.108 20.7206C128.47 20.5453 128.745 20.305 128.931 19.9996H131.06C130.806 20.8195 130.314 21.467 129.584 21.942C128.855 22.4114 127.976 22.646 126.946 22.646C126.285 22.646 125.674 22.5471 125.114 22.3492C124.554 22.1512 124.068 21.86 123.655 21.4755C123.243 21.0853 122.923 20.5962 122.697 20.0081C122.471 19.4143 122.358 18.7188 122.358 17.9215ZM124.427 16.98H129.364C129.222 16.2166 128.923 15.6737 128.465 15.3514C128.007 15.0234 127.501 14.8594 126.946 14.8594C126.319 14.8594 125.779 15.0319 125.326 15.3768C124.88 15.7161 124.58 16.2505 124.427 16.98Z" fill="white"/>
<g clip-path="url(#clip0_3961_14532)">
<g clip-path="url(#clip1_3961_14532)">
<path d="M3.9218 5.68555C4.51953 5.68555 5.09675 5.90607 5.54526 6.30577L6.13627 6.83246C6.51003 7.16554 6.99105 7.34932 7.48915 7.34932H14.5041C15.0023 7.34932 15.4833 7.16554 15.8571 6.83246L16.448 6.30577C16.8965 5.90607 17.4738 5.68555 18.0715 5.68555H21.2824V7.55635H0.710938V5.68555H3.9218Z" fill="white"/>
<path d="M18.0715 26.2571C17.4738 26.2571 16.8965 26.0365 16.448 25.6368L15.8571 25.1101C15.4833 24.7771 15.0023 24.5933 14.5041 24.5933H7.48915C6.99105 24.5933 6.51003 24.7771 6.13627 25.1101L5.54526 25.6368C5.09675 26.0365 4.51953 26.2571 3.9218 26.2571H0.710938V24.3862H21.2824V26.2571H18.0715Z" fill="white"/>
<path d="M16.448 8.38389C16.8965 7.98419 17.4738 7.76367 18.0715 7.76367H21.2824V9.63448H0.710938V7.76367H3.9218C4.51953 7.76367 5.09675 7.98419 5.54526 8.38389L6.13627 8.91058C6.51003 9.24367 6.99105 9.42744 7.48915 9.42744H14.5041C15.0023 9.42744 15.4833 9.24367 15.8571 8.91058L16.448 8.38389Z" fill="white"/>
<path d="M18.0715 24.1789C17.4738 24.1789 16.8965 23.9584 16.448 23.5587L15.8571 23.032C15.4833 22.699 15.0023 22.5152 14.5041 22.5152H7.48915C6.99105 22.5152 6.51003 22.699 6.13627 23.032L5.54526 23.5587C5.09675 23.9584 4.51953 24.1789 3.9218 24.1789H0.710938V22.3081H21.2824V24.1789H18.0715Z" fill="white"/>
<path d="M19.1026 10.462C19.5512 10.0623 20.1283 9.8418 20.7261 9.8418H21.2827V11.7126H17.127V11.5056H17.1587C17.6568 11.5056 18.1378 11.3218 18.5116 10.9887L19.1026 10.462Z" fill="white"/>
<path d="M17.127 13.5832H17.1587C17.6568 13.5832 18.1378 13.3994 18.5116 13.0664L19.1026 12.5397C19.5512 12.14 20.1283 11.9194 20.7261 11.9194H21.2827V13.7902H17.127V13.5832Z" fill="white"/>
<path d="M4.86673 11.5056V11.7126H0.710938V9.8418H1.26758C1.86531 9.8418 2.44252 10.0623 2.89104 10.462L3.48205 10.9887C3.85581 11.3218 4.33682 11.5056 4.83493 11.5056H4.86673Z" fill="white"/>
<path d="M4.86673 13.5832V13.7902H0.710938V11.9194H1.26758C1.86531 11.9194 2.44252 12.14 2.89104 12.5397L3.48205 13.0664C3.85581 13.3994 4.33682 13.5832 4.83493 13.5832H4.86673Z" fill="white"/>
<path d="M4.83493 15.6614H4.86673V15.8684H0.710938V13.9976H1.26758C1.86531 13.9976 2.44252 14.2181 2.89104 14.6178L3.48205 15.1445C3.85581 15.4776 4.33682 15.6614 4.83493 15.6614Z" fill="white"/>
<path d="M17.127 15.8684H21.2827V13.9976H20.7261C20.1283 13.9976 19.5512 14.2181 19.1026 14.6178L18.5116 15.1445C18.1378 15.4776 17.6568 15.6614 17.1587 15.6614H17.127V15.8684Z" fill="white"/>
<path d="M17.1587 17.738H17.127V17.9451H21.2827V16.0742H20.7261C20.1283 16.0742 19.5512 16.2947 19.1026 16.6944L18.5116 17.2211C18.1378 17.5542 17.6568 17.738 17.1587 17.738Z" fill="white"/>
<path d="M4.86673 17.738H4.83493C4.33682 17.738 3.85581 17.5542 3.48205 17.2211L2.89104 16.6944C2.44252 16.2947 1.86531 16.0742 1.26758 16.0742H0.710938V17.9451H4.86673V17.738Z" fill="white"/>
<path d="M4.83493 19.8171H4.86673V20.0241H0.710938V18.1533H1.26758C1.86531 18.1533 2.44252 18.3738 2.89104 18.7735L3.48205 19.3002C3.85581 19.6333 4.33682 19.8171 4.83493 19.8171Z" fill="white"/>
<path d="M17.127 20.0241H21.2827V18.1533H20.7261C20.1283 18.1533 19.5512 18.3738 19.1026 18.7735L18.5116 19.3002C18.1378 19.6333 17.6568 19.8171 17.1587 19.8171H17.127V20.0241Z" fill="white"/>
<path d="M17.1587 21.8937H17.125V22.1007H21.2827V20.23H20.726C20.1283 20.23 19.5511 20.4505 19.1026 20.8502L18.5116 21.3769C18.1378 21.71 17.6568 21.8937 17.1587 21.8937Z" fill="white"/>
<path d="M4.86857 22.1007V21.8937H4.83493C4.33682 21.8937 3.85581 21.71 3.48205 21.3769L2.89104 20.8502C2.44252 20.4505 1.86531 20.23 1.26758 20.23H0.710938V22.1007H4.86857Z" fill="white"/>
<rect x="6.50195" y="11.4678" width="9" height="9" rx="2" fill="url(#paint0_linear_3961_14532)"/>
</g>
</g>
<defs>
<linearGradient id="paint0_linear_3961_14532" x1="6.50195" y1="15.9678" x2="15.502" y2="15.9678" gradientUnits="userSpaceOnUse">
<stop stop-color="white"/>
<stop offset="0.297138" stop-color="#4ADEFF"/>
<stop offset="0.786752" stop-color="#FF35EB"/>
<stop offset="1" stop-color="#FFED4A"/>
</linearGradient>
<clipPath id="clip0_3961_14532">
<rect width="21.9429" height="21.9429" fill="white" transform="translate(0.0253906 5)"/>
</clipPath>
<clipPath id="clip1_3961_14532">
<rect width="21.9429" height="21.9429" fill="white" transform="translate(0.0253906 5)"/>
</clipPath>
</defs>
</svg>
