<svg width="143" height="24" viewBox="0 0 143 24" fill="none" xmlns="http://www.w3.org/2000/svg">
<rect x="0.75" y="0.75" width="22.5" height="22.5" rx="3.25" stroke="white" stroke-width="1.5"/>
<circle cx="12" cy="12" r="6" fill="url(#paint0_linear_2104_6676)"/>
<path d="M32.9463 19V5.43652H35.1914V11.207H42.4648V5.43652H44.71V19H42.4648V13.2202H35.1914V19H32.9463ZM45.2759 9.19385H47.6509L50.5176 16.4951H50.6938L53.5791 9.19385H55.9355L50.3135 22.6089H47.957L49.4229 19.0928L45.2759 9.19385ZM56.5107 22.6089V9.19385H58.4868L58.6816 10.5483H58.8672C59.6774 9.47217 60.8 8.93408 62.2349 8.93408C62.8286 8.93408 63.4007 9.03923 63.9512 9.24951C64.5016 9.45361 64.9871 9.76904 65.4077 10.1958C65.8345 10.6164 66.1746 11.1545 66.4282 11.8101C66.6818 12.4595 66.8086 13.2233 66.8086 14.1016C66.8086 14.9736 66.6818 15.7344 66.4282 16.3838C66.1746 17.027 65.8345 17.5651 65.4077 17.998C64.9871 18.4248 64.5016 18.7433 63.9512 18.9536C63.4007 19.1639 62.8286 19.269 62.2349 19.269C60.7938 19.269 59.6712 18.731 58.8672 17.6548H58.6816V22.6089H56.5107ZM58.6816 14.1016C58.6816 15.1901 58.96 16.0127 59.5166 16.5693C60.0732 17.126 60.7876 17.4043 61.6597 17.4043C62.5317 17.4043 63.2461 17.1353 63.8027 16.5972C64.3656 16.0591 64.647 15.2272 64.647 14.1016C64.647 12.9759 64.3687 12.144 63.812 11.606C63.2554 11.0617 62.5379 10.7896 61.6597 10.7896C60.7876 10.7896 60.0732 11.0679 59.5166 11.6245C58.96 12.1812 58.6816 13.0068 58.6816 14.1016ZM67.9497 14.1016C67.9497 13.2295 68.0765 12.4688 68.3301 11.8193C68.5837 11.1699 68.9362 10.6318 69.3877 10.2051C69.8392 9.77214 70.368 9.45361 70.9741 9.24951C71.5802 9.03923 72.2451 8.93408 72.9688 8.93408C73.7666 8.93408 74.484 9.06706 75.1211 9.33301C75.7643 9.59896 76.2993 9.98242 76.7261 10.4834C77.159 10.9782 77.4744 11.5843 77.6724 12.3018C77.8084 12.7904 77.8765 13.3223 77.8765 13.8975C77.8765 14.1696 77.861 14.451 77.8301 14.7417H70.1577C70.2567 15.6509 70.5597 16.3281 71.0669 16.7734C71.5741 17.2188 72.208 17.4414 72.9688 17.4414C73.4264 17.4414 73.8501 17.3486 74.2397 17.1631C74.6356 16.9714 74.9355 16.7085 75.1396 16.3745H77.4683C77.1899 17.2713 76.6519 17.9795 75.854 18.499C75.0562 19.0124 74.0944 19.269 72.9688 19.269C72.2451 19.269 71.5771 19.1608 70.9648 18.9443C70.3525 18.7279 69.8206 18.4093 69.3691 17.9888C68.9176 17.562 68.5682 17.027 68.3208 16.3838C68.0734 15.7344 67.9497 14.9736 67.9497 14.1016ZM70.2134 13.0718H75.6128C75.4582 12.2368 75.1304 11.6431 74.6294 11.2905C74.1284 10.9318 73.5749 10.7524 72.9688 10.7524C72.2822 10.7524 71.6916 10.9411 71.1968 11.3184C70.7082 11.6895 70.3804 12.2739 70.2134 13.0718ZM79.4072 19V9.19385H81.3833L81.5781 10.7153H81.7637C82.1162 10.1958 82.5646 9.81234 83.1089 9.56494C83.6593 9.31755 84.4139 9.19385 85.3726 9.19385V11.207C85.0695 11.1761 84.7881 11.1606 84.5283 11.1606C83.6501 11.1606 82.979 11.3431 82.5151 11.708C81.9152 12.1842 81.6029 12.9543 81.5781 14.0181V19H79.4072ZM86.3281 19V5.43652H88.499V10.5483H88.6846C89.4824 9.47217 90.605 8.93408 92.0522 8.93408C92.646 8.93408 93.2181 9.03923 93.7686 9.24951C94.319 9.45361 94.8045 9.76904 95.2251 10.1958C95.6519 10.6164 95.992 11.1545 96.2456 11.8101C96.4992 12.4595 96.626 13.2233 96.626 14.1016C96.626 14.9736 96.4992 15.7344 96.2456 16.3838C95.992 17.027 95.6519 17.5651 95.2251 17.998C94.8045 18.4248 94.319 18.7433 93.7686 18.9536C93.2181 19.1639 92.646 19.269 92.0522 19.269C90.6235 19.269 89.501 18.731 88.6846 17.6548H88.499L88.3042 19H86.3281ZM88.499 14.1016C88.499 15.1901 88.7773 16.0127 89.334 16.5693C89.8906 17.126 90.605 17.4043 91.4771 17.4043C92.3491 17.4043 93.0635 17.1353 93.6201 16.5972C94.1829 16.0591 94.4644 15.2272 94.4644 14.1016C94.4644 12.9759 94.186 12.144 93.6294 11.606C93.0728 11.0617 92.3553 10.7896 91.4771 10.7896C90.605 10.7896 89.8906 11.0679 89.334 11.6245C88.7773 12.1812 88.499 13.0068 88.499 14.1016ZM98.1475 19V9.19385H100.124L100.318 10.7153H100.504C100.856 10.1958 101.305 9.81234 101.849 9.56494C102.4 9.31755 103.154 9.19385 104.113 9.19385V11.207C103.81 11.1761 103.528 11.1606 103.269 11.1606C102.39 11.1606 101.719 11.3431 101.255 11.708C100.655 12.1842 100.343 12.9543 100.318 14.0181V19H98.1475ZM104.883 6.47559C104.883 6.11068 105.003 5.80762 105.245 5.56641C105.486 5.3252 105.789 5.20459 106.154 5.20459C106.519 5.20459 106.822 5.3252 107.063 5.56641C107.304 5.80762 107.425 6.11068 107.425 6.47559C107.425 6.84049 107.304 7.14665 107.063 7.39404C106.828 7.63525 106.525 7.75586 106.154 7.75586C105.789 7.75586 105.486 7.63525 105.245 7.39404C105.003 7.14665 104.883 6.84049 104.883 6.47559ZM105.068 19V9.19385H107.239V19H105.068ZM108.751 14.1016C108.751 13.2295 108.878 12.4657 109.132 11.8101C109.385 11.1545 109.726 10.6164 110.152 10.1958C110.579 9.76904 111.068 9.45361 111.618 9.24951C112.169 9.03923 112.741 8.93408 113.334 8.93408C114.806 8.93408 115.929 9.47217 116.702 10.5483H116.888V5.43652H119.049V19H117.073L116.888 17.6548H116.702C115.917 18.731 114.794 19.269 113.334 19.269C112.741 19.269 112.169 19.1639 111.618 18.9536C111.068 18.7433 110.579 18.4248 110.152 17.998C109.726 17.5651 109.385 17.027 109.132 16.3838C108.878 15.7344 108.751 14.9736 108.751 14.1016ZM110.922 14.1016C110.922 15.2272 111.201 16.0591 111.757 16.5972C112.314 17.1353 113.035 17.4043 113.919 17.4043C114.352 17.4043 114.748 17.3363 115.106 17.2002C115.471 17.0579 115.787 16.8477 116.053 16.5693C116.319 16.291 116.523 15.9478 116.665 15.5396C116.813 15.1252 116.888 14.6458 116.888 14.1016C116.888 13.0254 116.609 12.2059 116.053 11.6431C115.496 11.0741 114.785 10.7896 113.919 10.7896C113.035 10.7896 112.314 11.0617 111.757 11.606C111.201 12.144 110.922 12.9759 110.922 14.1016ZM120.571 13.7212C120.571 12.911 120.698 12.2059 120.951 11.606C121.205 10.9998 121.545 10.502 121.972 10.1123C122.398 9.71647 122.887 9.42269 123.438 9.23096C123.988 9.03304 124.56 8.93408 125.154 8.93408C126.613 8.93408 127.736 9.47217 128.521 10.5483H128.707L128.893 9.19385H130.869V17.8403C130.869 18.8052 130.717 19.6092 130.414 20.2524C130.111 20.9019 129.715 21.4183 129.227 21.8018C128.738 22.1914 128.191 22.4666 127.584 22.6274C126.978 22.7944 126.363 22.8779 125.738 22.8779C124.118 22.8779 122.924 22.5749 122.157 21.9688C121.465 21.4121 121.118 20.6823 121.118 19.7793C121.118 19.6927 121.121 19.603 121.127 19.5103H123.308C123.301 19.5597 123.298 19.6092 123.298 19.6587C123.298 20.0731 123.481 20.4009 123.846 20.6421C124.26 20.9142 124.885 21.0503 125.72 21.0503C126.128 21.0503 126.511 20.9915 126.87 20.874C127.235 20.7627 127.554 20.5864 127.826 20.3452C128.098 20.104 128.311 19.7948 128.466 19.4175C128.627 19.0402 128.707 18.5856 128.707 18.0537V16.894H128.521C127.736 17.9702 126.613 18.5083 125.154 18.5083C124.56 18.5083 123.988 18.4093 123.438 18.2114C122.887 18.0135 122.398 17.7166 121.972 17.3208C121.545 16.9188 121.205 16.4209 120.951 15.8271C120.698 15.2334 120.571 14.5314 120.571 13.7212ZM122.742 13.7212C122.742 14.7108 123.02 15.4468 123.577 15.9292C124.133 16.4054 124.854 16.6436 125.738 16.6436C126.171 16.6436 126.567 16.5817 126.926 16.458C127.291 16.3281 127.606 16.1395 127.872 15.8921C128.138 15.6447 128.342 15.3416 128.484 14.9829C128.633 14.618 128.707 14.1974 128.707 13.7212C128.707 13.2511 128.633 12.8337 128.484 12.4688C128.342 12.0977 128.138 11.7884 127.872 11.541C127.606 11.2936 127.291 11.1081 126.926 10.9844C126.567 10.8545 126.171 10.7896 125.738 10.7896C124.854 10.7896 124.133 11.0308 123.577 11.5132C123.02 11.9956 122.742 12.7316 122.742 13.7212ZM132.39 14.1016C132.39 13.2295 132.517 12.4688 132.771 11.8193C133.024 11.1699 133.377 10.6318 133.828 10.2051C134.28 9.77214 134.808 9.45361 135.415 9.24951C136.021 9.03923 136.686 8.93408 137.409 8.93408C138.207 8.93408 138.924 9.06706 139.562 9.33301C140.205 9.59896 140.74 9.98242 141.167 10.4834C141.599 10.9782 141.915 11.5843 142.113 12.3018C142.249 12.7904 142.317 13.3223 142.317 13.8975C142.317 14.1696 142.301 14.451 142.271 14.7417H134.598C134.697 15.6509 135 16.3281 135.507 16.7734C136.014 17.2188 136.648 17.4414 137.409 17.4414C137.867 17.4414 138.291 17.3486 138.68 17.1631C139.076 16.9714 139.376 16.7085 139.58 16.3745H141.909C141.63 17.2713 141.092 17.9795 140.294 18.499C139.497 19.0124 138.535 19.269 137.409 19.269C136.686 19.269 136.018 19.1608 135.405 18.9443C134.793 18.7279 134.261 18.4093 133.81 17.9888C133.358 17.562 133.009 17.027 132.761 16.3838C132.514 15.7344 132.39 14.9736 132.39 14.1016ZM134.654 13.0718H140.053C139.899 12.2368 139.571 11.6431 139.07 11.2905C138.569 10.9318 138.015 10.7524 137.409 10.7524C136.723 10.7524 136.132 10.9411 135.637 11.3184C135.149 11.6895 134.821 12.2739 134.654 13.0718Z" fill="white"/>
<defs>
<linearGradient id="paint0_linear_2104_6676" x1="6" y1="12" x2="18" y2="12" gradientUnits="userSpaceOnUse">
<stop stop-color="#FC00FF"/>
<stop offset="1" stop-color="#00DBDE"/>
</linearGradient>
</defs>
</svg>
