<svg
      xmlns="http://www.w3.org/2000/svg"
      width="46"
      height="44"
      viewBox="0 0 46 44"
      fill="none"
    >
      <path
        d="M24.9179 0.104077C24.2166 0.0353347 23.5053 0 22.7854 0C22.0654 0 21.3541 0.0353347 20.6528 0.104077C9.08639 1.14677 -0.00012207 10.5631 -0.00012207 21.9994C-0.00012207 34.1307 10.2209 44 22.7854 44C35.3499 44 45.5709 34.1301 45.5709 21.9994C45.5709 10.5631 36.485 1.14677 24.9179 0.104077ZM20.9403 0.95532C21.5497 0.905852 22.1626 0.865378 22.7854 0.865378C23.4082 0.865378 24.021 0.906494 24.6305 0.955963C33.7303 1.85089 40.8539 9.29173 40.8539 18.3098C40.8539 22.1336 39.5584 25.662 37.3893 28.5401C39.0634 25.9735 40.0468 22.9463 40.0468 19.6955C40.0468 10.5053 32.3031 3.03043 22.7854 3.03043C13.2677 3.03043 5.52525 10.5053 5.52525 19.6955C5.52525 22.9463 6.50869 25.9729 8.18213 28.5395C6.01364 25.662 4.71813 22.1336 4.71813 18.3098C4.71813 9.29173 11.8411 1.85089 20.9403 0.95532ZM25.93 33.3142C25.93 31.6393 24.5194 30.2786 22.7854 30.2786C21.0514 30.2786 19.6408 31.6393 19.6408 33.3142C19.6408 33.9714 19.8637 34.5759 20.2323 35.0732C19.4152 34.3825 18.8882 33.381 18.8882 32.2528C18.8882 30.1777 20.6368 28.4874 22.7854 28.4874C24.9346 28.4874 26.6832 30.1777 26.6832 32.2528C26.6832 33.3823 26.1549 34.3851 25.3365 35.0751C25.7064 34.5772 25.93 33.972 25.93 33.3142ZM25.1708 34.6826C25.1608 34.6986 25.1535 34.716 25.1435 34.7314C24.8813 35.1368 24.5107 35.4638 24.0709 35.6867C23.685 35.8827 23.2518 36.0041 22.786 36.0041C21.7899 36.0041 20.921 35.4927 20.4286 34.7307C20.4186 34.7153 20.4113 34.698 20.4013 34.6819C20.2968 34.5123 20.2143 34.3318 20.1498 34.141C20.1325 34.0902 20.1152 34.0401 20.1005 33.9881C20.042 33.7709 20.0007 33.5474 20.0007 33.3135C20.0007 31.8295 21.2503 30.6229 22.7867 30.6229C24.3231 30.6229 25.5727 31.8295 25.5727 33.3135C25.5727 33.548 25.5321 33.7716 25.4729 33.9881C25.4582 34.0401 25.4409 34.0896 25.4236 34.1403C25.3577 34.3318 25.2752 34.513 25.1708 34.6826ZM27.0425 32.2528C27.0425 29.9863 25.1329 28.1424 22.7854 28.1424C20.4392 28.1424 18.5296 29.9863 18.5296 32.2528C18.5296 33.2859 18.9401 34.22 19.5942 34.9421C18.3745 34.0247 17.5854 32.5998 17.5854 30.9936C17.5854 28.2234 19.9176 25.971 22.786 25.971C25.6545 25.971 27.9874 28.224 27.9874 30.9936C27.9874 32.5998 27.1982 34.0241 25.9792 34.9415C26.632 34.2187 27.0425 33.2852 27.0425 32.2528ZM28.3453 30.9936C28.3453 28.0345 25.8508 25.626 22.7854 25.626C19.7206 25.626 17.2261 28.0345 17.2261 30.9936C17.2261 32.3543 17.7703 33.5846 18.638 34.5322C17.2121 33.3797 16.2839 31.6701 16.2839 29.7383C16.2839 26.2768 19.2003 23.4596 22.7847 23.4596C26.3691 23.4596 29.2862 26.2768 29.2862 29.7383C29.2862 31.6695 28.3586 33.379 26.9327 34.5316C27.8017 33.584 28.3453 32.3537 28.3453 30.9936ZM29.6462 29.7376C29.6462 26.0853 26.5681 23.1146 22.7854 23.1146C19.0026 23.1146 15.9259 26.086 15.9259 29.7376C15.9259 31.4446 16.6159 32.9871 17.7185 34.1622C16.0596 32.7796 14.985 30.7598 14.985 28.4836C14.985 24.3295 18.4843 20.9496 22.7854 20.9496C27.0864 20.9496 30.587 24.3295 30.587 28.4836C30.587 30.7598 29.5131 32.7796 27.8536 34.1622C28.9555 32.9871 29.6462 31.4446 29.6462 29.7376ZM30.9457 28.4836C30.9457 24.1387 27.2847 20.6046 22.7854 20.6046C18.286 20.6046 14.6257 24.1387 14.6257 28.4836C14.6257 30.5349 15.4615 32.389 16.7969 33.7921C14.9059 32.1815 13.6875 29.8514 13.6875 27.2315C13.6875 22.388 17.7684 18.4466 22.7854 18.4466C27.8024 18.4466 31.8832 22.388 31.8832 27.2315C31.8832 29.8514 30.6655 32.1802 28.7752 33.7915C30.1099 32.3884 30.9457 30.5343 30.9457 28.4836ZM32.2418 27.2315C32.2418 22.1966 28 18.1016 22.7854 18.1016C17.5707 18.1016 13.3289 22.1966 13.3289 27.2315C13.3289 29.6985 14.3569 31.9316 16.0097 33.5763C13.794 31.7324 12.3834 29.0097 12.3834 25.9703C12.3834 20.4318 17.0497 15.9263 22.786 15.9263C28.5223 15.9263 33.1887 20.4318 33.1887 25.9703C33.1887 29.0097 31.7781 31.7324 29.5623 33.5763C31.2138 31.9322 32.2418 29.6985 32.2418 27.2315ZM33.5467 25.971C33.5467 20.2416 28.7193 15.5826 22.7854 15.5826C16.8515 15.5826 12.0241 20.2423 12.0241 25.971C12.0241 28.7521 13.1679 31.275 15.017 33.142C12.6136 31.072 11.0892 28.0692 11.0892 24.722C11.0892 18.4942 16.3358 13.4278 22.7854 13.4278C29.2356 13.4278 34.4822 18.4948 34.4822 24.722C34.4822 28.0711 32.9558 31.0759 30.5498 33.1458C32.4015 31.2789 33.5467 28.7534 33.5467 25.971ZM34.8408 24.722C34.8408 18.3033 29.4319 13.0828 22.7854 13.0828C16.1388 13.0828 10.7306 18.3033 10.7306 24.722C10.7306 27.8611 12.0294 30.7084 14.1287 32.804C11.4671 30.5028 9.77973 27.1711 9.77973 23.4584C9.77973 16.534 15.6138 10.9017 22.7847 10.9017C29.9556 10.9017 35.791 16.5334 35.791 23.4577C35.791 27.1691 34.1049 30.5002 31.4447 32.8015C33.5427 30.7058 34.8408 27.8598 34.8408 24.722ZM36.1497 23.4577C36.1497 16.3426 30.1545 10.5561 22.7854 10.5561C15.4162 10.5561 9.42108 16.3426 9.42108 23.4577C9.42108 26.9391 10.863 30.0974 13.1925 32.4212C10.3054 29.8918 8.4789 26.2536 8.4789 22.2024C8.4789 14.5855 14.8965 8.3878 22.7854 8.3878C30.6742 8.3878 37.0918 14.5849 37.0918 22.2024C37.0918 26.2536 35.2654 29.8918 32.3782 32.4212C34.7078 30.0974 36.1497 26.9391 36.1497 23.4577ZM37.4511 22.2017C37.4511 14.3941 30.8725 8.04281 22.7854 8.04281C14.6983 8.04281 8.11959 14.3941 8.11959 22.2017C8.11959 26.0256 9.70454 29.4942 12.2643 32.044C9.14761 29.2866 7.17807 25.3382 7.17807 20.9445C7.17807 12.6344 14.1793 5.87455 22.7854 5.87455C31.3921 5.87455 38.3933 12.6344 38.3933 20.9445C38.3933 25.3401 36.4218 29.2905 33.3025 32.0479C35.8649 29.4974 37.4511 26.0275 37.4511 22.2017ZM38.7526 20.9445C38.7526 12.4436 31.5904 5.52955 22.786 5.52955C13.9823 5.52955 6.82009 12.4436 6.82009 20.9445C6.82009 25.1127 8.54943 28.8941 11.3427 31.6714C7.99583 28.6872 5.88455 24.4304 5.88455 19.6955C5.88455 10.6961 13.4666 3.37478 22.786 3.37478C32.1054 3.37478 39.6888 10.6961 39.6888 19.6955C39.6888 24.4297 37.5776 28.686 34.2327 31.6695C37.024 28.8922 38.7526 25.112 38.7526 20.9445ZM3.88241 17.1534C3.85712 17.5376 3.82186 17.9192 3.82186 18.3098C3.82186 28.4058 12.3288 36.6195 22.7854 36.6195C33.2419 36.6195 41.7495 28.4058 41.7495 18.3098C41.7495 17.9192 41.7136 17.5376 41.689 17.1534C41.7702 17.8408 41.8214 18.5366 41.8214 19.2445C41.8214 29.3779 33.2825 37.6237 22.7854 37.6237C12.2896 37.6237 3.75 29.3779 3.75 19.2445C3.75 18.5366 3.80123 17.8408 3.88241 17.1534ZM2.91294 18.1125C2.89032 18.489 2.85372 18.8623 2.85372 19.2445C2.85372 29.8565 11.7945 38.4891 22.7854 38.4891C33.7762 38.4891 42.7177 29.8559 42.7177 19.2445C42.7177 18.8623 42.6811 18.489 42.6585 18.1125C42.7323 18.7871 42.7749 19.4707 42.7749 20.1639C42.7749 30.806 33.8075 39.4643 22.7854 39.4643C11.7639 39.4643 2.79716 30.806 2.79716 20.1639C2.79716 19.4707 2.83908 18.7871 2.91294 18.1125ZM1.96476 18.9484C1.93948 19.3525 1.90089 19.7534 1.90089 20.1639C1.90089 31.2827 11.2695 40.3297 22.7854 40.3297C34.3019 40.3297 43.6705 31.2827 43.6705 20.1639C43.6705 19.7534 43.6319 19.3525 43.6066 18.9484C43.6832 19.6512 43.7264 20.363 43.7264 21.0852C43.7264 32.2329 34.3318 41.303 22.7847 41.303C11.2383 41.303 1.84433 32.2323 1.84433 21.0852C1.84499 20.363 1.88758 19.6506 1.96476 18.9484ZM22.7854 43.1346C10.7159 43.1346 0.896153 33.6534 0.896153 21.9994C0.896153 21.2567 0.938073 20.523 1.01592 19.7996C0.989307 20.2275 0.948719 20.6515 0.948719 21.0852C0.948719 32.7109 10.7445 42.1684 22.7854 42.1684C34.8269 42.1684 44.6233 32.7109 44.6233 21.0852C44.6233 20.6541 44.5828 20.2326 44.5561 19.808C44.6333 20.5288 44.6746 21.2599 44.6746 22C44.6746 33.6534 34.8548 43.1346 22.7854 43.1346Z"
        fill="white"
      />
    </svg>
