<svg width="1000" height="350" viewBox="0 0 1000 350" fill="none" xmlns="http://www.w3.org/2000/svg">
<path d="M293.094 214.312V137.327H305.837V170.081H347.121V137.327H359.864V214.312H347.121V181.507H305.837V214.312H293.094Z" fill="#030303"/>
<path d="M364.207 158.655H377.69L393.963 200.095H394.967L411.341 158.655H424.717L392.809 234.8H379.433L387.754 214.845L364.218 158.661L364.207 158.655Z" fill="#030303"/>
<path d="M428.545 234.794V158.655H439.758L440.862 166.388H441.915C446.516 160.252 452.888 157.181 461.03 157.181C464.409 157.181 467.66 157.77 470.792 158.946C473.925 160.123 476.693 161.916 479.103 164.32C481.512 166.73 483.44 169.784 484.88 173.488C486.32 177.198 487.043 181.541 487.043 186.534C487.043 191.527 486.32 195.786 484.88 199.451C483.44 203.116 481.512 206.17 479.103 208.608C476.693 211.045 473.925 212.861 470.792 214.055C467.66 215.248 464.409 215.842 461.03 215.842C452.849 215.842 446.477 212.788 441.915 206.68H440.862V234.8H428.539L428.545 234.794ZM440.868 186.534C440.868 192.704 442.448 197.366 445.608 200.521C448.769 203.676 452.821 205.257 457.774 205.257C462.728 205.257 466.785 203.732 469.963 200.684C473.14 197.635 474.726 192.917 474.726 186.54C474.726 180.163 473.146 175.438 469.985 172.368C466.825 169.302 462.751 167.767 457.769 167.767C452.787 167.767 448.763 169.347 445.603 172.496C442.442 175.651 440.862 180.331 440.862 186.534H440.868Z" fill="#030303"/>
<path d="M490.607 186.506C490.607 181.558 491.324 177.237 492.765 173.55C494.205 169.863 496.205 166.803 498.766 164.36C501.327 161.922 504.331 160.112 507.772 158.935C511.213 157.758 514.984 157.17 519.092 157.17C523.619 157.17 527.699 157.926 531.336 159.434C534.967 160.941 538.005 163.11 540.448 165.934C542.885 168.759 544.667 172.211 545.794 176.279C546.567 179.053 546.954 182.073 546.954 185.335C546.954 186.882 546.864 188.479 546.69 190.126H503.143C503.703 195.287 505.424 199.132 508.304 201.659C511.185 204.186 514.782 205.453 519.097 205.453C521.692 205.453 524.107 204.92 526.337 203.844C528.568 202.774 530.26 201.289 531.42 199.395H544.639C543.059 204.483 540.005 208.496 535.477 211.426C530.949 214.357 525.491 215.825 519.103 215.825C514.995 215.825 511.201 215.209 507.727 213.982C504.253 212.754 501.232 210.939 498.671 208.529C496.11 206.125 494.126 203.088 492.72 199.417C491.313 195.747 490.613 191.437 490.613 186.489L490.607 186.506ZM503.457 180.661H534.104C533.224 175.943 531.364 172.575 528.523 170.563C525.682 168.551 522.538 167.548 519.097 167.548C515.202 167.548 511.857 168.607 509.066 170.72C506.276 172.833 504.404 176.15 503.457 180.656V180.661Z" fill="#030303"/>
<path d="M551.006 214.312V158.655H562.219L563.323 167.167H564.377C566.377 164.259 568.933 162.112 572.037 160.728C575.142 159.344 579.417 158.649 584.859 158.649V169.919C583.138 169.745 581.541 169.655 580.067 169.655C575.08 169.655 571.275 170.692 568.641 172.771C565.234 175.483 563.463 179.871 563.323 185.929V214.307H551L551.006 214.312Z" fill="#030303"/>
<path d="M589.073 214.312V137.327H601.395V166.388H602.449C606.977 160.252 613.348 157.181 621.564 157.181C624.943 157.181 628.193 157.769 631.326 158.946C634.458 160.123 637.226 161.916 639.636 164.32C642.046 166.73 643.973 169.784 645.414 173.488C646.854 177.198 647.577 181.541 647.577 186.534C647.577 191.527 646.854 195.786 645.414 199.451C643.973 203.116 642.046 206.17 639.636 208.608C637.226 211.045 634.458 212.861 631.326 214.055C628.193 215.248 624.943 215.842 621.564 215.842C613.455 215.842 607.083 212.788 602.449 206.68H601.395L600.291 214.312H589.078H589.073ZM601.395 186.534C601.395 192.704 602.976 197.366 606.136 200.521C609.297 203.676 613.348 205.256 618.302 205.256C623.256 205.256 627.313 203.732 630.491 200.684C633.668 197.635 635.254 192.917 635.254 186.54C635.254 180.162 633.674 175.438 630.513 172.368C627.352 169.302 623.278 167.767 618.297 167.767C613.315 167.767 609.291 169.347 606.131 172.496C602.97 175.651 601.39 180.331 601.39 186.534H601.395Z" fill="#030303"/>
<path d="M651.628 214.312V158.655H662.842L663.946 167.167H664.999C667 164.259 669.555 162.112 672.66 160.728C675.764 159.344 680.04 158.649 685.481 158.649V169.919C683.761 169.745 682.164 169.655 680.69 169.655C675.703 169.655 671.898 170.692 669.264 172.771C665.857 175.483 664.086 179.871 663.946 185.929V214.307H651.623L651.628 214.312Z" fill="#030303"/>
<path d="M688.636 143.222C688.636 141.148 689.32 139.428 690.693 138.061C692.06 136.693 693.781 136.01 695.854 136.01C697.927 136.01 699.648 136.693 701.015 138.061C702.382 139.428 703.072 141.148 703.072 143.222C703.072 145.295 702.394 147.021 701.043 148.411C699.693 149.801 697.961 150.49 695.854 150.49C693.747 150.49 692.066 149.795 690.693 148.411C689.325 147.027 688.636 145.295 688.636 143.222ZM689.69 214.307V158.655H702.013V214.312H689.69V214.307Z" fill="#030303"/>
<path d="M706.07 186.534C706.07 181.58 706.787 177.243 708.227 173.516C709.667 169.79 711.595 166.724 714.022 164.32C716.443 161.916 719.216 160.123 722.343 158.946C725.47 157.769 728.715 157.181 732.083 157.181C740.438 157.181 746.81 160.252 751.198 166.388H752.251V137.327H764.574V214.312H753.361L752.257 206.68H751.203C746.743 212.788 740.371 215.842 732.088 215.842C728.721 215.842 725.47 215.248 722.349 214.055C719.222 212.861 716.454 211.045 714.027 208.608C711.606 206.17 709.673 203.121 708.233 199.451C706.793 195.786 706.075 191.482 706.075 186.534H706.07ZM718.393 186.534C718.393 192.917 719.973 197.63 723.134 200.678C726.294 203.727 730.385 205.251 735.4 205.251C737.855 205.251 740.113 204.859 742.164 204.068C744.221 203.278 745.997 202.096 747.51 200.521C749.018 198.947 750.189 196.991 751.013 194.66C751.836 192.328 752.251 189.622 752.251 186.534C752.251 180.437 750.671 175.78 747.51 172.575C744.35 169.369 740.315 167.761 735.4 167.761C730.486 167.761 726.289 169.297 723.134 172.362C719.973 175.427 718.393 180.151 718.393 186.534Z" fill="#030303"/>
<path d="M768.626 184.388C768.626 179.781 769.343 175.764 770.783 172.34C772.223 168.91 774.151 166.08 776.578 163.85C778.998 161.619 781.772 159.949 784.899 158.84C788.026 157.73 791.271 157.181 794.639 157.181C802.921 157.181 809.293 160.252 813.753 166.388H814.807L815.911 158.655H827.124V207.733C827.124 213.208 826.261 217.781 824.541 221.452C822.815 225.117 820.568 228.053 817.788 230.244C815.009 232.435 811.899 233.999 808.452 234.929C805.006 235.859 801.509 236.324 797.956 236.324C788.76 236.324 781.985 234.604 777.631 231.163C773.697 228.003 771.736 223.861 771.736 218.734C771.736 218.241 771.753 217.731 771.786 217.204H784.109C784.076 217.484 784.059 217.764 784.059 218.045C784.059 220.398 785.095 222.259 787.169 223.626C789.528 225.173 793.075 225.94 797.827 225.94C800.147 225.94 802.338 225.615 804.395 224.965C806.452 224.315 808.256 223.307 809.803 221.939C811.349 220.572 812.571 218.818 813.468 216.677C814.364 214.537 814.813 211.959 814.813 208.944V202.371H813.759C809.298 208.462 802.927 211.505 794.644 211.505C791.276 211.505 788.026 210.944 784.905 209.824C781.778 208.703 779.01 207.011 776.583 204.752C774.157 202.494 772.229 199.681 770.789 196.313C769.349 192.945 768.631 188.972 768.631 184.377L768.626 184.388ZM780.949 184.377C780.949 189.986 782.529 194.15 785.689 196.862C788.85 199.58 792.941 200.936 797.956 200.936C800.411 200.936 802.669 200.577 804.72 199.86C806.777 199.143 808.553 198.084 810.066 196.677C811.574 195.276 812.745 193.55 813.569 191.499C814.392 189.448 814.807 187.072 814.807 184.377C814.807 181.681 814.392 179.339 813.569 177.254C812.745 175.169 811.574 173.427 810.066 172.026C808.559 170.625 806.777 169.566 804.72 168.843C802.669 168.125 800.411 167.767 797.956 167.767C792.935 167.767 788.844 169.134 785.689 171.869C782.529 174.604 780.949 178.773 780.949 184.382V184.377Z" fill="#030303"/>
<path d="M831.181 186.506C831.181 181.558 831.899 177.237 833.339 173.55C834.779 169.863 836.78 166.803 839.341 164.36C841.902 161.922 844.905 160.112 848.346 158.935C851.787 157.758 855.558 157.17 859.666 157.17C864.194 157.17 868.273 157.926 871.91 159.434C875.541 160.941 878.579 163.11 881.022 165.934C883.46 168.759 885.242 172.211 886.368 176.279C887.141 179.053 887.528 182.073 887.528 185.335C887.528 186.882 887.438 188.479 887.265 190.126H843.717C844.278 195.287 845.998 199.132 848.878 201.659C851.759 204.186 855.356 205.453 859.671 205.453C862.272 205.453 864.681 204.92 866.911 203.844C869.142 202.774 870.834 201.289 871.994 199.395H885.214C883.633 204.483 880.579 208.496 876.051 211.426C871.523 214.357 866.065 215.825 859.677 215.825C855.569 215.825 851.781 215.209 848.301 213.982C844.827 212.754 841.806 210.939 839.245 208.529C836.684 206.125 834.701 203.088 833.294 199.417C831.887 195.747 831.187 191.437 831.187 186.489L831.181 186.506ZM844.031 180.661H874.678C873.799 175.943 871.938 172.575 869.097 170.563C866.256 168.551 863.112 167.548 859.671 167.548C855.777 167.548 852.431 168.607 849.64 170.72C846.85 172.833 844.978 176.15 844.031 180.656V180.661Z" fill="#030303"/>
<path d="M133.848 107.169C137.817 107.169 141.65 108.634 144.628 111.288L148.552 114.785C151.034 116.996 154.228 118.217 157.535 118.217H204.115C207.422 118.217 210.616 116.996 213.098 114.785L217.022 111.288C220 108.634 223.833 107.169 227.802 107.169H249.122V119.591H112.528V107.169H133.848Z" fill="#030303"/>
<path d="M227.802 243.763C223.833 243.763 220 242.299 217.022 239.645L213.098 236.148C210.616 233.936 207.422 232.716 204.115 232.716H157.535C154.228 232.716 151.034 233.936 148.552 236.148L144.628 239.645C141.65 242.299 137.817 243.763 133.848 243.763H112.528V231.341L249.122 231.341V243.763H227.802Z" fill="#030303"/>
<path d="M217.022 125.084C220 122.43 223.833 120.965 227.802 120.965H249.122V133.387H112.528V120.965H133.848C137.817 120.965 141.65 122.43 144.628 125.084L148.552 128.581C151.034 130.792 154.228 132.013 157.535 132.013H204.115C207.422 132.013 210.616 130.792 213.098 128.581L217.022 125.084Z" fill="#030303"/>
<path d="M227.802 229.967C223.833 229.967 220 228.503 217.022 225.849L213.098 222.352C210.616 220.14 207.422 218.92 204.115 218.92H157.535C154.228 218.92 151.034 220.14 148.552 222.352L144.628 225.849C141.65 228.503 137.817 229.967 133.848 229.967H112.528V217.545L249.122 217.545V229.967H227.802Z" fill="#030303"/>
<path d="M234.646 138.882C237.624 136.228 241.457 134.763 245.426 134.763H249.122V147.186H221.527V145.811H221.739C225.046 145.811 228.24 144.591 230.722 142.379L234.646 138.882Z" fill="#030303"/>
<path d="M221.527 159.607H221.739C225.046 159.607 228.24 158.387 230.722 156.175L234.646 152.678C237.624 150.024 241.457 148.559 245.426 148.559H249.122V160.982H221.527V159.607Z" fill="#030303"/>
<path d="M140.122 145.811V147.186H112.528V134.763H116.224C120.193 134.763 124.026 136.228 127.004 138.882L130.928 142.379C133.41 144.591 136.604 145.811 139.911 145.811H140.122Z" fill="#030303"/>
<path d="M140.122 159.607V160.982H112.528V148.559H116.224C120.193 148.559 124.026 150.024 127.004 152.678L130.928 156.175C133.41 158.387 136.604 159.607 139.911 159.607H140.122Z" fill="#030303"/>
<path d="M139.911 173.405H140.122V174.78H112.528V162.358H116.224C120.193 162.358 124.026 163.822 127.004 166.476L130.928 169.973C133.41 172.185 136.604 173.405 139.911 173.405Z" fill="#030303"/>
<path d="M221.527 174.78L249.122 174.78V162.358H245.426C241.457 162.358 237.624 163.822 234.646 166.476L230.722 169.973C228.24 172.185 225.046 173.405 221.739 173.405H221.527V174.78Z" fill="#030303"/>
<path d="M221.739 187.2H221.527V188.575H249.122V176.153H245.426C241.457 176.153 237.624 177.617 234.646 180.271L230.722 183.768C228.24 185.98 225.046 187.2 221.739 187.2Z" fill="#030303"/>
<path d="M140.122 187.2H139.911C136.604 187.2 133.41 185.98 130.928 183.768L127.004 180.271C124.026 177.617 120.193 176.153 116.224 176.153H112.528V188.575H140.122V187.2Z" fill="#030303"/>
<path d="M139.911 200.998H140.122V202.373H112.528V189.951H116.224C120.193 189.951 124.026 191.415 127.004 194.069L130.928 197.567C133.41 199.778 136.604 200.998 139.911 200.998Z" fill="#030303"/>
<path d="M221.527 202.373H249.122V189.951H245.426C241.457 189.951 237.624 191.415 234.646 194.069L230.722 197.567C228.24 199.778 225.046 200.998 221.739 200.998H221.527V202.373Z" fill="#030303"/>
<path d="M221.739 214.794H221.515V216.169H249.122V203.747H245.426C241.457 203.747 237.624 205.211 234.646 207.865L230.722 211.363C228.24 213.574 225.046 214.794 221.739 214.794Z" fill="#030303"/>
<path d="M140.134 216.169V214.794H139.911C136.604 214.794 133.41 213.574 130.928 211.363L127.004 207.865C124.026 205.211 120.193 203.747 116.224 203.747H112.528V216.169H140.134Z" fill="#030303"/>
<mask id="mask0_2554_26" style="mask-type:alpha" maskUnits="userSpaceOnUse" x="150" y="145" width="61" height="61">
<path d="M203.571 145.569C207.528 145.569 210.736 148.777 210.736 152.734L210.736 198.216C210.736 202.173 207.528 205.381 203.571 205.381L158.089 205.381C154.132 205.381 150.924 202.173 150.924 198.216L150.924 152.734C150.924 148.777 154.132 145.569 158.089 145.569L203.571 145.569Z" fill="#333333"/>
</mask>
<g mask="url(#mask0_2554_26)">
<g filter="url(#filter0_f_2554_26)">
<ellipse cx="73.2734" cy="26.6796" rx="73.2734" ry="26.6796" transform="matrix(-0.847045 -0.531521 -0.531521 0.847045 265.022 223.46)" fill="url(#paint0_linear_2554_26)"/>
</g>
<g filter="url(#filter1_f_2554_26)">
<ellipse cx="71.6021" cy="33.94" rx="71.6021" ry="33.94" transform="matrix(0.847045 0.531521 0.531521 -0.847045 89.4358 126.951)" fill="url(#paint1_linear_2554_26)"/>
</g>
</g>
<g style="mix-blend-mode:plus-lighter" filter="url(#filter2_ii_2554_26)">
<path d="M203.566 145.569C207.523 145.569 210.731 148.777 210.731 152.734L210.731 198.216C210.731 202.174 207.523 205.381 203.566 205.381L158.084 205.381C154.127 205.381 150.919 202.174 150.919 198.216L150.919 152.734C150.919 148.777 154.127 145.569 158.084 145.569L203.566 145.569Z" fill="#030303"/>
</g>
<defs>
<filter id="filter0_f_2554_26" x="101.413" y="138.394" width="174.724" height="137.437" filterUnits="userSpaceOnUse" color-interpolation-filters="sRGB">
<feFlood flood-opacity="0" result="BackgroundImageFix"/>
<feBlend mode="normal" in="SourceGraphic" in2="BackgroundImageFix" result="shape"/>
<feGaussianBlur stdDeviation="11.8414" result="effect1_foregroundBlur_2554_26"/>
</filter>
<filter id="filter1_f_2554_26" x="81.1502" y="64.8788" width="173.951" height="142.763" filterUnits="userSpaceOnUse" color-interpolation-filters="sRGB">
<feFlood flood-opacity="0" result="BackgroundImageFix"/>
<feBlend mode="normal" in="SourceGraphic" in2="BackgroundImageFix" result="shape"/>
<feGaussianBlur stdDeviation="11.8414" result="effect1_foregroundBlur_2554_26"/>
</filter>
<filter id="filter2_ii_2554_26" x="150.919" y="145.569" width="59.8123" height="61.6034" filterUnits="userSpaceOnUse" color-interpolation-filters="sRGB">
<feFlood flood-opacity="0" result="BackgroundImageFix"/>
<feBlend mode="normal" in="SourceGraphic" in2="BackgroundImageFix" result="shape"/>
<feColorMatrix in="SourceAlpha" type="matrix" values="0 0 0 0 0 0 0 0 0 0 0 0 0 0 0 0 0 0 127 0" result="hardAlpha"/>
<feOffset dy="1.79127"/>
<feGaussianBlur stdDeviation="8.95634"/>
<feComposite in2="hardAlpha" operator="arithmetic" k2="-1" k3="1"/>
<feColorMatrix type="matrix" values="0 0 0 0 1 0 0 0 0 1 0 0 0 0 1 0 0 0 0.25 0"/>
<feBlend mode="normal" in2="shape" result="effect1_innerShadow_2554_26"/>
<feColorMatrix in="SourceAlpha" type="matrix" values="0 0 0 0 0 0 0 0 0 0 0 0 0 0 0 0 0 0 127 0" result="hardAlpha"/>
<feOffset dy="1.79127"/>
<feGaussianBlur stdDeviation="2.23908"/>
<feComposite in2="hardAlpha" operator="arithmetic" k2="-1" k3="1"/>
<feColorMatrix type="matrix" values="0 0 0 0 1 0 0 0 0 1 0 0 0 0 1 0 0 0 0.5 0"/>
<feBlend mode="normal" in2="effect1_innerShadow_2554_26" result="effect2_innerShadow_2554_26"/>
</filter>
<linearGradient id="paint0_linear_2554_26" x1="25.7249" y1="12.6637" x2="118.368" y2="29.5113" gradientUnits="userSpaceOnUse">
<stop offset="0.2" stop-color="#C74800"/>
<stop offset="0.4" stop-color="#F9ED00"/>
<stop offset="0.6" stop-color="#CB00CB"/>
<stop offset="0.69526" stop-color="#290686"/>
<stop offset="0.8" stop-color="#2F3EC6"/>
<stop offset="1" stop-color="#25E893"/>
</linearGradient>
<linearGradient id="paint1_linear_2554_26" x1="30.4939" y1="43.755" x2="124.874" y2="51.3714" gradientUnits="userSpaceOnUse">
<stop offset="0.2" stop-color="#E0621A"/>
<stop offset="0.4" stop-color="#F9ED00"/>
<stop offset="0.6" stop-color="#CB00CB"/>
<stop offset="0.69526" stop-color="#290686"/>
<stop offset="0.8" stop-color="#2F3EC6"/>
<stop offset="1" stop-color="#25E893"/>
</linearGradient>
</defs>
</svg>
