<svg width="32" height="32" viewBox="0 0 32 32" fill="none" xmlns="http://www.w3.org/2000/svg">
<path d="M5.68251 1C6.5542 1 7.39597 1.32159 8.05005 1.90449L8.91194 2.67258C9.45701 3.15833 10.1585 3.42633 10.8849 3.42633H21.1151C21.8415 3.42633 22.543 3.15833 23.0881 2.67258L23.9499 1.90449C24.604 1.32159 25.4458 1 26.3175 1H31V3.72826H1V1H5.68251Z" fill="white"/>
<path d="M26.3175 31C25.4458 31 24.604 30.6784 23.9499 30.0955L23.0881 29.3274C22.543 28.8417 21.8415 28.5737 21.1151 28.5737H10.8849C10.1585 28.5737 9.45701 28.8417 8.91194 29.3274L8.05005 30.0955C7.39597 30.6784 6.5542 31 5.68251 31H1V28.2717L31 28.2717V31H26.3175Z" fill="white"/>
<path d="M23.9499 4.93449C24.604 4.35159 25.4458 4.03 26.3175 4.03H31V6.75826H1V4.03H5.68251C6.5542 4.03 7.39597 4.35159 8.05005 4.93449L8.91194 5.70258C9.45701 6.18833 10.1585 6.45633 10.8849 6.45633H21.1151C21.8415 6.45633 22.543 6.18833 23.0881 5.70258L23.9499 4.93449Z" fill="white"/>
<path d="M26.3175 27.97C25.4458 27.97 24.604 27.6484 23.9499 27.0655L23.0881 26.2974C22.543 25.8117 21.8415 25.5437 21.1151 25.5437H10.8849C10.1585 25.5437 9.45701 25.8117 8.91194 26.2974L8.05005 27.0655C7.39597 27.6484 6.5542 27.97 5.68251 27.97H1V25.2417L31 25.2417V27.97H26.3175Z" fill="white"/>
<path d="M27.8207 7.96496C28.4748 7.38206 29.3165 7.06047 30.1882 7.06047H31V9.78873H24.9395V9.48679H24.9858C25.7122 9.48679 26.4137 9.2188 26.9588 8.73305L27.8207 7.96496Z" fill="white"/>
<path d="M24.9395 12.5168H24.9858C25.7122 12.5168 26.4137 12.2488 26.9588 11.7631L27.8207 10.995C28.4748 10.4121 29.3165 10.0905 30.1882 10.0905H31V12.8187H24.9395V12.5168Z" fill="white"/>
<path d="M7.06053 9.48679V9.78873H1V7.06047H1.81177C2.68346 7.06047 3.52523 7.38206 4.17932 7.96496L5.04121 8.73305C5.58627 9.2188 6.28775 9.48679 7.01416 9.48679H7.06053Z" fill="white"/>
<path d="M7.06053 12.5168V12.8187H1V10.0905H1.81177C2.68346 10.0905 3.52523 10.4121 4.17932 10.995L5.04121 11.7631C5.58627 12.2488 6.28775 12.5168 7.01416 12.5168H7.06053Z" fill="white"/>
<path d="M7.01416 15.5473H7.06053V15.8492L1 15.8492V13.1209H1.81177C2.68346 13.1209 3.52523 13.4425 4.17932 14.0254L5.04121 14.7935C5.58627 15.2793 6.28775 15.5473 7.01416 15.5473Z" fill="white"/>
<path d="M24.9395 15.8492L31 15.8492V13.1209H30.1882C29.3165 13.1209 28.4748 13.4425 27.8207 14.0254L26.9588 14.7935C26.4137 15.2793 25.7122 15.5473 24.9858 15.5473H24.9395V15.8492Z" fill="white"/>
<path d="M24.9858 18.5771H24.9395V18.8791H31V16.1508H30.1882C29.3165 16.1508 28.4748 16.4724 27.8207 17.0553L26.9588 17.8234C26.4137 18.3091 25.7122 18.5771 24.9858 18.5771Z" fill="white"/>
<path d="M7.06053 18.5771H7.01416C6.28775 18.5771 5.58627 18.3091 5.04121 17.8234L4.17932 17.0553C3.52523 16.4724 2.68346 16.1508 1.81177 16.1508H1V18.8791H7.06053V18.5771Z" fill="white"/>
<path d="M7.01416 21.6076H7.06053V21.9095H1V19.1813H1.81177C2.68346 19.1813 3.52523 19.5029 4.17932 20.0858L5.04121 20.8539C5.58627 21.3396 6.28775 21.6076 7.01416 21.6076Z" fill="white"/>
<path d="M24.9395 21.9095H31V19.1813H30.1882C29.3165 19.1813 28.4748 19.5029 27.8207 20.0858L26.9588 20.8539C26.4137 21.3396 25.7122 21.6076 24.9858 21.6076H24.9395V21.9095Z" fill="white"/>
<path d="M24.9858 24.6376H24.9367V24.9395H31V22.2113H30.1882C29.3165 22.2113 28.4748 22.5329 27.8207 23.1158L26.9588 23.8839C26.4137 24.3696 25.7122 24.6376 24.9858 24.6376Z" fill="white"/>
<path d="M7.06322 24.9395V24.6376H7.01416C6.28775 24.6376 5.58627 24.3696 5.04121 23.8839L4.17932 23.1158C3.52523 22.5329 2.68346 22.2113 1.81177 22.2113H1V24.9395H7.06322Z" fill="white"/>
<mask id="mask0_1944_34965" style="mask-type:alpha" maskUnits="userSpaceOnUse" x="9" y="9" width="14" height="14">
<path d="M20.9967 9.43382C21.8658 9.43382 22.5703 10.1384 22.5703 11.0075L22.5703 20.9967C22.5703 21.8658 21.8658 22.5703 20.9967 22.5703L11.0075 22.5703C10.1384 22.5703 9.43382 21.8658 9.43382 20.9967L9.43382 11.0075C9.43382 10.1384 10.1384 9.43382 11.0075 9.43382L20.9967 9.43382Z" fill="#333333"/>
</mask>
<g mask="url(#mask0_1944_34965)">
<g filter="url(#filter0_f_1944_34965)">
<ellipse cx="16.093" cy="5.85961" rx="16.093" ry="5.85961" transform="matrix(-0.847045 -0.531521 -0.531521 0.847045 34.4922 26.5435)" fill="url(#paint0_linear_1944_34965)"/>
</g>
<g filter="url(#filter1_f_1944_34965)">
<ellipse cx="15.7259" cy="7.45421" rx="15.7259" ry="7.45421" transform="matrix(0.847045 0.531521 0.531521 -0.847045 -4.07031 5.34473)" fill="url(#paint1_linear_1944_34965)"/>
</g>
</g>
<g style="mix-blend-mode:plus-lighter" filter="url(#filter2_ii_1944_34965)">
<path d="M20.9927 9.43382C21.8619 9.43382 22.5664 10.1384 22.5664 11.0075L22.5664 20.9967C22.5664 21.8658 21.8619 22.5703 20.9927 22.5703L11.0036 22.5703C10.1345 22.5703 9.42992 21.8658 9.42992 20.9967L9.42992 11.0075C9.42992 10.1384 10.1345 9.43382 11.0036 9.43382L20.9927 9.43382Z" fill="#030303"/>
</g>
<defs>
<filter id="filter0_f_1944_34965" x="-0.393393" y="8.9069" width="36.279" height="28.0925" filterUnits="userSpaceOnUse" color-interpolation-filters="sRGB">
<feFlood flood-opacity="0" result="BackgroundImageFix"/>
<feBlend mode="normal" in="SourceGraphic" in2="BackgroundImageFix" result="shape"/>
<feGaussianBlur stdDeviation="2.07756" result="effect1_foregroundBlur_1944_34965"/>
</filter>
<filter id="filter1_f_1944_34965" x="-4.84261" y="-7.24203" width="36.111" height="29.2624" filterUnits="userSpaceOnUse" color-interpolation-filters="sRGB">
<feFlood flood-opacity="0" result="BackgroundImageFix"/>
<feBlend mode="normal" in="SourceGraphic" in2="BackgroundImageFix" result="shape"/>
<feGaussianBlur stdDeviation="2.07756" result="effect1_foregroundBlur_1944_34965"/>
</filter>
<filter id="filter2_ii_1944_34965" x="9.42969" y="9.43359" width="13.1367" height="13.451" filterUnits="userSpaceOnUse" color-interpolation-filters="sRGB">
<feFlood flood-opacity="0" result="BackgroundImageFix"/>
<feBlend mode="normal" in="SourceGraphic" in2="BackgroundImageFix" result="shape"/>
<feColorMatrix in="SourceAlpha" type="matrix" values="0 0 0 0 0 0 0 0 0 0 0 0 0 0 0 0 0 0 127 0" result="hardAlpha"/>
<feOffset dy="0.314275"/>
<feGaussianBlur stdDeviation="1.57137"/>
<feComposite in2="hardAlpha" operator="arithmetic" k2="-1" k3="1"/>
<feColorMatrix type="matrix" values="0 0 0 0 1 0 0 0 0 1 0 0 0 0 1 0 0 0 0.25 0"/>
<feBlend mode="normal" in2="shape" result="effect1_innerShadow_1944_34965"/>
<feColorMatrix in="SourceAlpha" type="matrix" values="0 0 0 0 0 0 0 0 0 0 0 0 0 0 0 0 0 0 127 0" result="hardAlpha"/>
<feOffset dy="0.314275"/>
<feGaussianBlur stdDeviation="0.392843"/>
<feComposite in2="hardAlpha" operator="arithmetic" k2="-1" k3="1"/>
<feColorMatrix type="matrix" values="0 0 0 0 1 0 0 0 0 1 0 0 0 0 1 0 0 0 0.5 0"/>
<feBlend mode="normal" in2="effect1_innerShadow_1944_34965" result="effect2_innerShadow_1944_34965"/>
</filter>
<linearGradient id="paint0_linear_1944_34965" x1="5.64993" y1="2.78132" x2="25.997" y2="6.48153" gradientUnits="userSpaceOnUse">
<stop offset="0.2" stop-color="#C74800"/>
<stop offset="0.4" stop-color="#F9ED00"/>
<stop offset="0.6" stop-color="#CB00CB"/>
<stop offset="0.69526" stop-color="#290686"/>
<stop offset="0.8" stop-color="#2F3EC6"/>
<stop offset="1" stop-color="#25E893"/>
</linearGradient>
<linearGradient id="paint1_linear_1944_34965" x1="6.69735" y1="9.60986" x2="27.426" y2="11.2827" gradientUnits="userSpaceOnUse">
<stop offset="0.2" stop-color="#E0621A"/>
<stop offset="0.4" stop-color="#F9ED00"/>
<stop offset="0.6" stop-color="#CB00CB"/>
<stop offset="0.69526" stop-color="#290686"/>
<stop offset="0.8" stop-color="#2F3EC6"/>
<stop offset="1" stop-color="#25E893"/>
</linearGradient>
</defs>
</svg>
