<svg viewBox="0 0 960 140" xmlns="http://www.w3.org/2000/svg">
  <defs>
    <marker id="arrow" viewBox="0 0 10 10" refX="9" refY="5" markerWidth="6" markerHeight="6" orient="auto-start-auto">
      <path d="M 0 0 L 10 5 L 0 10 z" fill="#888"/>
    </marker>
  </defs>

  <rect x="10" y="40" width="130" height="60" rx="8" fill="none" stroke="#888" stroke-width="1.5"/>
  <text x="75" y="65" text-anchor="middle" fill="#ccc" font-size="13" font-weight="bold" font-family="system-ui, sans-serif">Relay Chain</text>
  <text x="75" y="82" text-anchor="middle" fill="#999" font-size="11" font-family="system-ui, sans-serif">BEEFY finality</text>

  <line x1="140" y1="70" x2="195" y2="70" stroke="#888" stroke-width="1.5" marker-end="url(#arrow)"/>

  <rect x="200" y="40" width="130" height="60" rx="8" fill="none" stroke="#888" stroke-width="1.5"/>
  <text x="265" y="65" text-anchor="middle" fill="#ccc" font-size="13" font-weight="bold" font-family="system-ui, sans-serif">Prover</text>
  <text x="265" y="82" text-anchor="middle" fill="#999" font-size="11" font-family="system-ui, sans-serif">generates proof</text>

  <line x1="330" y1="70" x2="385" y2="70" stroke="#888" stroke-width="1.5" marker-end="url(#arrow)"/>

  <rect x="390" y="40" width="130" height="60" rx="8" fill="none" stroke="#888" stroke-width="1.5"/>
  <text x="455" y="65" text-anchor="middle" fill="#ccc" font-size="13" font-weight="bold" font-family="system-ui, sans-serif">Hyperbridge</text>
  <text x="455" y="82" text-anchor="middle" fill="#999" font-size="11" font-family="system-ui, sans-serif">verifies &amp; stores</text>

  <line x1="520" y1="70" x2="575" y2="70" stroke="#888" stroke-width="1.5" marker-end="url(#arrow)"/>

  <rect x="580" y="40" width="150" height="60" rx="8" fill="none" stroke="#888" stroke-width="1.5"/>
  <text x="655" y="65" text-anchor="middle" fill="#ccc" font-size="13" font-weight="bold" font-family="system-ui, sans-serif">Relayers / Apps</text>
  <text x="655" y="82" text-anchor="middle" fill="#999" font-size="11" font-family="system-ui, sans-serif">fetch proof</text>

  <line x1="730" y1="70" x2="785" y2="70" stroke="#888" stroke-width="1.5" marker-end="url(#arrow)"/>

  <rect x="790" y="40" width="150" height="60" rx="8" fill="none" stroke="#888" stroke-width="1.5"/>
  <text x="865" y="65" text-anchor="middle" fill="#ccc" font-size="13" font-weight="bold" font-family="system-ui, sans-serif">Destination Chain</text>
  <text x="865" y="82" text-anchor="middle" fill="#999" font-size="11" font-family="system-ui, sans-serif">deliver</text>
</svg>
