<svg width="256" height="256" viewBox="0 0 256 256" fill="none" xmlns="http://www.w3.org/2000/svg">
<rect width="256" height="256" fill="#1E1E1E"/>
<g id="Favicon">
<rect width="256" height="256" rx="30" fill="#010101"/>
<g id="Group 48099414">
<path id="Vector" d="M135.955 43.4021C133.339 43.1365 130.686 43 128 43C125.314 43 122.661 43.1365 120.045 43.4021C76.8967 47.4307 43 83.8121 43 127.997C43 174.869 81.1289 213 128 213C174.871 213 213 174.866 213 127.997C213 83.8121 179.106 47.4307 135.955 43.4021ZM121.117 46.691C123.391 46.4999 125.677 46.3435 128 46.3435C130.323 46.3435 132.609 46.5024 134.883 46.6935C168.83 50.1512 195.404 78.8999 195.404 113.742C195.404 128.516 190.571 142.148 182.479 153.269C188.724 143.352 192.393 131.656 192.393 119.096C192.393 83.5887 163.505 54.7085 128 54.7085C92.4948 54.7085 63.6121 83.5887 63.6121 119.096C63.6121 131.656 67.2808 143.35 73.5235 153.266C65.434 142.148 60.6012 128.516 60.6012 113.742C60.6012 78.8999 87.173 50.1512 121.117 46.691ZM139.731 171.714C139.731 165.243 134.469 159.985 128 159.985C121.531 159.985 116.269 165.243 116.269 171.714C116.269 174.253 117.101 176.589 118.476 178.51C115.428 175.842 113.462 171.972 113.462 167.613C113.462 159.596 119.985 153.065 128 153.065C136.017 153.065 142.541 159.596 142.541 167.613C142.541 171.977 140.57 175.852 137.517 178.517C138.897 176.594 139.731 174.255 139.731 171.714ZM136.899 177.001C136.861 177.063 136.834 177.13 136.797 177.189C135.819 178.756 134.436 180.019 132.796 180.88C131.356 181.638 129.74 182.107 128.002 182.107C124.287 182.107 121.045 180.131 119.208 177.187C119.171 177.127 119.144 177.06 119.106 176.998C118.717 176.343 118.409 175.646 118.168 174.908C118.104 174.712 118.039 174.519 117.984 174.318C117.766 173.479 117.612 172.615 117.612 171.711C117.612 165.977 122.274 161.316 128.005 161.316C133.736 161.316 138.398 165.977 138.398 171.711C138.398 172.617 138.246 173.481 138.026 174.318C137.971 174.519 137.906 174.71 137.842 174.906C137.596 175.646 137.288 176.345 136.899 177.001ZM143.881 167.613C143.881 158.856 136.757 151.732 128 151.732C119.248 151.732 112.124 158.856 112.124 167.613C112.124 171.605 113.655 175.214 116.095 178.004C111.546 174.459 108.602 168.954 108.602 162.748C108.602 152.045 117.302 143.342 128.002 143.342C138.703 143.342 147.406 152.047 147.406 162.748C147.406 168.954 144.462 174.457 139.915 178.001C142.35 175.209 143.881 171.602 143.881 167.613ZM148.741 162.748C148.741 151.315 139.435 142.009 128 142.009C116.567 142.009 107.261 151.315 107.261 162.748C107.261 168.005 109.292 172.759 112.529 176.42C107.209 171.967 103.747 165.362 103.747 157.898C103.747 144.524 114.626 133.639 127.998 133.639C141.369 133.639 152.251 144.524 152.251 157.898C152.251 165.359 148.791 171.964 143.471 176.417C146.713 172.756 148.741 168.003 148.741 162.748ZM153.594 157.895C153.594 143.784 142.111 132.307 128 132.307C113.889 132.307 102.411 143.787 102.411 157.895C102.411 164.491 104.985 170.45 109.098 174.99C102.91 169.649 98.9013 161.845 98.9013 153.05C98.9013 137 111.955 123.942 128 123.942C144.045 123.942 157.104 137 157.104 153.05C157.104 161.845 153.097 169.649 146.907 174.99C151.017 170.45 153.594 164.491 153.594 157.895ZM158.442 153.05C158.442 136.263 144.785 122.609 128 122.609C111.215 122.609 97.5609 136.263 97.5609 153.05C97.5609 160.976 100.679 168.139 105.66 173.56C98.606 167.338 94.0611 158.335 94.0611 148.212C94.0611 129.499 109.284 114.271 128 114.271C146.716 114.271 161.939 129.499 161.939 148.212C161.939 158.335 157.397 167.333 150.345 173.558C155.324 168.137 158.442 160.973 158.442 153.05ZM163.277 148.212C163.277 128.76 147.453 112.938 128 112.938C108.547 112.938 92.7232 128.76 92.7232 148.212C92.7232 157.744 96.5581 166.372 102.724 172.726C94.4582 165.603 89.196 155.083 89.196 143.34C89.196 121.941 106.604 104.533 128.002 104.533C149.401 104.533 166.809 121.941 166.809 143.34C166.809 155.083 161.547 165.603 153.281 172.726C159.442 166.375 163.277 157.744 163.277 148.212ZM168.144 143.342C168.144 121.206 150.136 103.205 128 103.205C105.864 103.205 87.8556 121.209 87.8556 143.342C87.8556 154.088 92.1225 163.835 99.0205 171.049C90.0548 163.051 84.3681 151.449 84.3681 138.517C84.3681 114.455 103.94 94.8802 128 94.8802C152.062 94.8802 171.634 114.457 171.634 138.517C171.634 151.457 165.94 163.066 156.965 171.063C163.873 163.85 168.144 154.093 168.144 143.342ZM172.972 138.517C172.972 113.717 152.795 93.5472 128 93.5472C103.205 93.5472 83.0302 113.717 83.0302 138.517C83.0302 150.645 87.8755 161.646 95.7068 169.743C85.778 160.852 79.4832 147.979 79.4832 133.635C79.4832 106.882 101.247 85.1202 127.998 85.1202C154.748 85.1202 176.517 106.879 176.517 133.632C176.517 147.972 170.227 160.842 160.303 169.733C168.13 161.636 172.972 150.64 172.972 138.517ZM177.855 133.632C177.855 106.142 155.49 83.7848 128 83.7848C100.51 83.7848 78.1453 106.142 78.1453 133.632C78.1453 147.083 83.5242 159.285 92.2143 168.263C81.4441 158.491 74.6305 144.435 74.6305 128.782C74.6305 99.3531 98.5712 75.4074 128 75.4074C157.429 75.4074 181.37 99.3506 181.37 128.782C181.37 144.435 174.556 158.491 163.786 168.263C172.476 159.285 177.855 147.083 177.855 133.632ZM182.71 128.779C182.71 98.6134 158.169 74.0745 128 74.0745C97.8315 74.0745 73.2901 98.6134 73.2901 128.779C73.2901 143.553 79.2027 156.955 88.7517 166.806C77.1251 156.153 69.7778 140.897 69.7778 123.922C69.7778 91.8147 95.8954 65.6971 128 65.6971C160.107 65.6971 186.225 91.8147 186.225 123.922C186.225 140.905 178.87 156.168 167.233 166.821C176.792 156.967 182.71 143.561 182.71 128.779ZM187.565 123.922C187.565 91.0775 160.847 64.3642 128.002 64.3642C95.1607 64.3642 68.4424 91.0775 68.4424 123.922C68.4424 140.026 74.8936 154.636 85.3138 165.367C72.8284 153.837 64.9525 137.39 64.9525 119.096C64.9525 84.3259 93.237 56.0389 128.002 56.0389C162.768 56.0389 191.057 84.3259 191.057 119.096C191.057 137.388 183.181 153.832 170.704 165.359C181.116 154.629 187.565 140.024 187.565 123.922ZM57.4836 109.274C57.3892 110.759 57.2577 112.233 57.2577 113.742C57.2577 152.75 88.9924 184.485 128 184.485C167.008 184.485 198.745 152.75 198.745 113.742C198.745 112.233 198.611 110.759 198.519 109.274C198.822 111.93 199.013 114.618 199.013 117.354C199.013 156.505 167.159 188.364 128 188.364C88.846 188.364 56.9896 156.505 56.9896 117.354C56.9896 114.618 57.1807 111.93 57.4836 109.274ZM53.867 112.98C53.7826 114.435 53.6461 115.877 53.6461 117.354C53.6461 158.355 86.9992 191.708 128 191.708C169.001 191.708 202.356 158.352 202.356 117.354C202.356 115.877 202.22 114.435 202.135 112.98C202.411 115.587 202.57 118.228 202.57 120.906C202.57 162.023 169.117 195.476 128 195.476C86.8851 195.476 53.4351 162.023 53.4351 120.906C53.4351 118.228 53.5915 115.587 53.867 112.98ZM50.3299 116.21C50.2356 117.771 50.0916 119.32 50.0916 120.906C50.0916 163.865 85.0408 198.819 128 198.819C170.962 198.819 205.911 163.865 205.911 120.906C205.911 119.32 205.767 117.771 205.673 116.21C205.958 118.925 206.119 121.675 206.119 124.465C206.119 167.536 171.073 202.58 127.998 202.58C84.9241 202.58 49.8806 167.534 49.8806 124.465C49.8831 121.675 50.042 118.923 50.3299 116.21ZM128 209.656C82.9756 209.656 46.3435 173.024 46.3435 127.997C46.3435 125.128 46.4999 122.293 46.7903 119.498C46.691 121.152 46.5396 122.79 46.5396 124.465C46.5396 169.383 83.0824 205.923 128 205.923C172.92 205.923 209.465 169.383 209.465 124.465C209.465 122.8 209.314 121.171 209.215 119.531C209.503 122.316 209.657 125.14 209.657 128C209.657 173.024 173.024 209.656 128 209.656Z" fill="white"/>
</g>
</g>
</svg>
