<svg width="187" height="35" viewBox="0 0 187 35" fill="none" xmlns="http://www.w3.org/2000/svg">
<path d="M46.636 26.1037V9.30469H49.4994V16.457H58.7944V9.30469H61.6578V26.1037H58.7944V18.9514H49.4994V26.1037H46.636Z" fill="white"/>
<path d="M65.6861 30.5733L67.6272 26.0791L62.385 13.9626H65.3947L69.0589 22.8559H69.3012L72.9174 13.9626H75.8054L68.6467 30.5733H65.6861Z" fill="white"/>
<path d="M76.5335 30.574V13.9643H79.0329L79.2752 15.7053H79.5176C80.5372 14.2697 81.9689 13.6351 83.8619 13.6351C87.0648 13.6351 89.6859 15.7995 89.6859 20.0349C89.6859 24.2704 87.0648 26.4347 83.8619 26.4347C81.9935 26.4347 80.5617 25.823 79.5176 24.4111H79.2752V30.575H76.5325L76.5335 30.574ZM86.8961 20.0339C86.8961 17.3045 85.2946 15.8461 83.0621 15.8461C80.8297 15.8461 79.2282 17.3283 79.2282 20.0339C79.2282 22.7396 80.8297 24.2218 83.0621 24.2218C85.2946 24.2218 86.8961 22.7396 86.8961 20.0339Z" fill="white"/>
<path d="M91.1433 20.0334C91.1433 15.7752 93.9096 13.6337 97.6709 13.6337C101.432 13.6337 103.836 15.9398 103.836 19.7975C103.836 20.0562 103.811 20.4796 103.763 20.7384H93.8861C94.0804 23.0911 95.6338 24.3849 97.6474 24.3849C98.8848 24.3849 100.05 23.8436 100.608 22.8561H103.326C102.598 25.0908 100.414 26.4322 97.672 26.4322C93.6437 26.4322 91.1443 24.0091 91.1443 20.0325L91.1433 20.0334ZM101.02 18.8804C100.801 16.8103 99.346 15.6572 97.5503 15.6572C95.7545 15.6572 94.2501 16.7865 93.9587 18.8804H101.021H101.02Z" fill="white"/>
<path d="M105.777 26.1037V13.9635H108.276L108.518 15.8691H108.761C109.659 14.599 111.018 13.9635 113.396 13.9635V16.4342C113.081 16.3876 112.765 16.3876 112.45 16.3876C109.781 16.3876 108.519 17.7756 108.519 20.4813V26.1047H105.777V26.1037Z" fill="white"/>
<path d="M114.609 26.1037V9.30469H122.836C126.719 9.30469 128.175 11.2578 128.175 13.6105C128.175 15.3515 127.423 16.7633 125.603 17.4692V17.7042C127.763 18.3625 128.661 19.9627 128.661 21.7979C128.661 24.1744 127.205 26.1037 123.322 26.1037H114.61H114.609ZM117.399 16.4808H122.739C124.68 16.4808 125.384 15.3515 125.384 14.0577C125.384 12.7638 124.681 11.7288 122.739 11.7288H117.399V16.4818V16.4808ZM117.399 23.6806H123.078C125.019 23.6806 125.747 22.5514 125.747 21.2575C125.747 19.9637 124.995 18.9048 123.054 18.9048H117.399V23.6806Z" fill="white"/>
<path d="M130.603 26.1037V13.9635H133.102L133.345 15.8691H133.587C134.485 14.599 135.844 13.9635 138.223 13.9635V16.4342C137.908 16.3876 137.592 16.3876 137.277 16.3876C134.608 16.3876 133.346 17.7756 133.346 20.4813V26.1047H130.603V26.1037Z" fill="white"/>
<path d="M139.144 10.6228C139.144 9.68187 139.847 8.99976 140.818 8.99976C141.788 8.99976 142.492 9.68187 142.492 10.6228C142.492 11.5636 141.788 12.2457 140.818 12.2457C139.847 12.2457 139.144 11.5636 139.144 10.6228ZM139.435 26.1042V13.9639H142.178V26.1042H139.435Z" fill="white"/>
<path d="M144.119 20.0331C144.119 15.8215 146.765 13.6333 149.943 13.6333C151.811 13.6333 153.243 14.2213 154.287 15.6569H154.53V9.30469H157.272V26.1037H154.773L154.531 24.3628H154.288C153.269 25.7984 151.837 26.4329 149.944 26.4329C146.765 26.4329 144.12 24.2686 144.12 20.0331H144.119ZM154.603 20.0331C154.603 17.3275 153.002 15.8453 150.745 15.8453C148.488 15.8453 146.934 17.3037 146.934 20.0331C146.934 22.7626 148.511 24.221 150.745 24.221C152.978 24.221 154.603 22.715 154.603 20.0331Z" fill="white"/>
<path d="M159.917 26.9032V26.7624H162.659C162.659 28.08 163.703 28.7621 165.79 28.7621C168.047 28.7621 169.624 27.4683 169.624 24.9272V23.4212H169.381C168.386 24.833 166.955 25.4913 165.037 25.4913C161.858 25.4913 159.213 23.4678 159.213 19.5625C159.213 15.6572 161.859 13.6337 165.037 13.6337C166.93 13.6337 168.362 14.2454 169.381 15.6572H169.624L169.866 13.9628H172.366V24.6675C172.366 29.4204 168.968 30.9027 165.813 30.9027C161.809 30.9027 159.94 29.3738 159.916 26.9032H159.917ZM169.673 19.5625C169.673 17.2802 168.022 15.8456 165.814 15.8456C163.606 15.8456 161.956 17.1394 161.956 19.5625C161.956 21.9856 163.557 23.2794 165.814 23.2794C168.071 23.2794 169.673 21.821 169.673 19.5625Z" fill="white"/>
<path d="M174.308 20.033C174.308 15.7747 177.074 13.6332 180.835 13.6332C184.597 13.6332 187 15.9393 187 19.797C187 20.0558 186.976 20.4791 186.927 20.7379H177.051C177.245 23.0906 178.798 24.3844 180.812 24.3844C182.049 24.3844 183.214 23.8431 183.773 22.8556H186.491C185.763 25.0903 183.578 26.4317 180.837 26.4317C176.808 26.4317 174.309 24.0087 174.309 20.032L174.308 20.033ZM184.185 18.8799C183.966 16.8098 182.511 15.6567 180.715 15.6567C178.919 15.6567 177.415 16.786 177.123 18.8799H184.186H184.185Z" fill="white"/>
<path d="M19.0971 0.597683C18.5596 0.544129 18.0144 0.516602 17.4627 0.516602C16.9109 0.516602 16.3658 0.544129 15.8283 0.597683C6.96385 1.41 0 8.7459 0 17.6554C0 27.1064 7.83332 34.7952 17.4627 34.7952C27.092 34.7952 34.9253 27.1059 34.9253 17.6554C34.9253 8.7459 27.962 1.41 19.0971 0.597683ZM16.0486 1.26085C16.5157 1.22231 16.9854 1.19078 17.4627 1.19078C17.94 1.19078 18.4096 1.22281 18.8768 1.26135C25.8508 1.95856 31.3103 7.7554 31.3103 14.781C31.3103 17.76 30.3174 20.5088 28.655 22.751C29.938 20.7515 30.6917 18.3931 30.6917 15.8606C30.6917 8.70086 24.757 2.87748 17.4627 2.87748C10.1684 2.87748 4.23461 8.70086 4.23461 15.8606C4.23461 18.3931 4.98831 20.751 6.27083 22.7505C4.60891 20.5088 3.61604 17.76 3.61604 14.781C3.61604 7.7554 9.07504 1.95856 16.0486 1.26085ZM19.8727 26.4703C19.8727 25.1655 18.7916 24.1054 17.4627 24.1054C16.1337 24.1054 15.0527 25.1655 15.0527 26.4703C15.0527 26.9823 15.2235 27.4533 15.506 27.8407C14.8798 27.3026 14.4759 26.5223 14.4759 25.6434C14.4759 24.0268 15.816 22.71 17.4627 22.71C19.1098 22.71 20.4499 24.0268 20.4499 25.6434C20.4499 26.5233 20.045 27.3046 19.4178 27.8422C19.7013 27.4543 19.8727 26.9828 19.8727 26.4703ZM19.2908 27.5364C19.2832 27.5489 19.2776 27.5624 19.2699 27.5744C19.069 27.8902 18.785 28.145 18.4479 28.3186C18.1521 28.4713 17.8201 28.5659 17.4632 28.5659C16.6998 28.5659 16.0338 28.1675 15.6564 27.5739C15.6488 27.5619 15.6432 27.5484 15.6355 27.5359C15.5555 27.4037 15.4922 27.2631 15.4428 27.1144C15.4295 27.0749 15.4162 27.0358 15.405 26.9953C15.3602 26.8261 15.3285 26.652 15.3285 26.4698C15.3285 25.3136 16.2862 24.3737 17.4637 24.3737C18.6412 24.3737 19.5988 25.3136 19.5988 26.4698C19.5988 26.6525 19.5677 26.8266 19.5223 26.9953C19.5111 27.0358 19.4979 27.0744 19.4846 27.1139C19.4341 27.2631 19.3709 27.4042 19.2908 27.5364ZM20.7253 25.6434C20.7253 23.8777 19.2618 22.4412 17.4627 22.4412C15.6646 22.4412 14.201 23.8777 14.201 25.6434C14.201 26.4483 14.5157 27.176 15.017 27.7386C14.0822 27.0238 13.4774 25.9137 13.4774 24.6625C13.4774 22.5043 15.2648 20.7495 17.4632 20.7495C19.6616 20.7495 21.4494 22.5048 21.4494 24.6625C21.4494 25.9137 20.8446 27.0233 19.9104 27.7381C20.4107 27.175 20.7253 26.4478 20.7253 25.6434ZM21.7238 24.6625C21.7238 22.3571 19.812 20.4807 17.4627 20.4807C15.1138 20.4807 13.2021 22.3571 13.2021 24.6625C13.2021 25.7225 13.6192 26.681 14.2842 27.4192C13.1913 26.5213 12.48 25.1895 12.48 23.6845C12.48 20.9877 14.7151 18.793 17.4622 18.793C20.2092 18.793 22.4449 20.9877 22.4449 23.6845C22.4449 25.189 21.734 26.5208 20.6412 27.4187C21.3072 26.6805 21.7238 25.722 21.7238 24.6625ZM22.7207 23.684C22.7207 20.8386 20.3617 18.5243 17.4627 18.5243C14.5636 18.5243 12.2056 20.8391 12.2056 23.684C12.2056 25.0138 12.7344 26.2155 13.5794 27.1309C12.3081 26.0539 11.4845 24.4803 11.4845 22.707C11.4845 19.4707 14.1664 16.8376 17.4627 16.8376C20.759 16.8376 23.4418 19.4707 23.4418 22.707C23.4418 24.4803 22.6188 26.0539 21.3469 27.1309C22.1914 26.2155 22.7207 25.0138 22.7207 23.684ZM23.7167 22.707C23.7167 19.3221 20.9109 16.5688 17.4627 16.5688C14.0144 16.5688 11.2092 19.3221 11.2092 22.707C11.2092 24.3051 11.8497 25.7495 12.8731 26.8427C11.4239 25.5879 10.4901 23.7726 10.4901 21.7315C10.4901 17.9582 13.6177 14.8876 17.4627 14.8876C21.3077 14.8876 24.4352 17.9582 24.4352 21.7315C24.4352 23.7726 23.502 25.5869 22.0532 26.8422C23.0762 25.749 23.7167 24.3046 23.7167 22.707ZM24.7101 21.7315C24.7101 17.809 21.4591 14.6188 17.4627 14.6188C13.4662 14.6188 10.2153 17.809 10.2153 21.7315C10.2153 23.6534 11.0032 25.3932 12.2699 26.6745C10.5717 25.238 9.49065 23.1169 9.49065 20.749C9.49065 16.4342 13.0669 12.9241 17.4632 12.9241C21.8594 12.9241 25.4357 16.4342 25.4357 20.749C25.4357 23.1169 24.3546 25.238 22.6565 26.6745C23.9222 25.3937 24.7101 23.6534 24.7101 21.7315ZM25.7101 20.7495C25.7101 16.286 22.0104 12.6563 17.4627 12.6563C12.9149 12.6563 9.21528 16.2865 9.21528 20.7495C9.21528 22.9162 10.0919 24.8817 11.509 26.3361C9.66709 24.7235 8.4988 22.3842 8.4988 19.7765C8.4988 14.9246 12.5197 10.9777 17.4627 10.9777C22.4061 10.9777 26.427 14.9251 26.427 19.7765C26.427 22.3857 25.2572 24.7265 23.4133 26.3391C24.8324 24.8847 25.7101 22.9172 25.7101 20.7495ZM26.7019 19.7765C26.7019 14.776 22.5565 10.7089 17.4627 10.7089C12.3688 10.7089 8.22394 14.776 8.22394 19.7765C8.22394 22.222 9.21935 24.4402 10.8282 26.0729C8.78845 24.2801 7.49522 21.6845 7.49522 18.792C7.49522 13.3976 11.9664 9.00967 17.4622 9.00967C22.9579 9.00967 27.4301 13.3971 27.4301 18.7915C27.4301 21.6829 26.1379 24.2781 24.0991 26.0709C25.707 24.4382 26.7019 22.221 26.7019 19.7765ZM27.705 18.7915C27.705 13.2484 23.1103 8.7404 17.4627 8.7404C11.815 8.7404 7.22036 13.2484 7.22036 18.7915C7.22036 21.5038 8.32542 23.9642 10.1107 25.7746C7.89808 23.8041 6.49827 20.9697 6.49827 17.8135C6.49827 11.8796 11.4167 7.05119 17.4627 7.05119C23.5086 7.05119 28.4271 11.8791 28.4271 17.8135C28.4271 20.9697 27.0273 23.8041 24.8146 25.7746C26.5999 23.9642 27.705 21.5038 27.705 18.7915ZM28.7024 17.813C28.7024 11.7304 23.6606 6.78242 17.4627 6.78242C11.2648 6.78242 6.2229 11.7304 6.2229 17.813C6.2229 20.792 7.4376 23.4943 9.39937 25.4808C7.01077 23.3326 5.50132 20.2565 5.50132 16.8336C5.50132 10.3595 10.867 5.09322 17.4627 5.09322C24.0588 5.09322 29.4245 10.3595 29.4245 16.8336C29.4245 20.258 27.9135 23.3356 25.5229 25.4838C27.4867 23.4968 28.7024 20.7936 28.7024 17.813ZM29.6999 16.8336C29.6999 10.2109 24.2108 4.82445 17.4632 4.82445C10.7161 4.82445 5.22697 10.2109 5.22697 16.8336C5.22697 20.0808 6.55233 23.0268 8.69309 25.1905C6.12805 22.8656 4.50998 19.5493 4.50998 15.8606C4.50998 8.84951 10.3208 3.14575 17.4632 3.14575C24.6055 3.14575 30.4174 8.84951 30.4174 15.8606C30.4174 19.5488 28.7993 22.8646 26.2358 25.189C28.375 23.0253 29.6999 20.0803 29.6999 16.8336ZM2.97555 13.8801C2.95617 14.1794 2.92914 14.4767 2.92914 14.781C2.92914 22.6464 9.44883 29.0454 17.4627 29.0454C25.4765 29.0454 31.9967 22.6464 31.9967 14.781C31.9967 14.4767 31.9692 14.1794 31.9503 13.8801C32.0125 14.4156 32.0518 14.9577 32.0518 15.5092C32.0518 23.4037 25.5076 29.8277 17.4627 29.8277C9.41874 29.8277 2.87407 23.4037 2.87407 15.5092C2.87407 14.9577 2.91333 14.4156 2.97555 13.8801ZM2.23255 14.6273C2.21522 14.9206 2.18717 15.2114 2.18717 15.5092C2.18717 23.7766 9.03934 30.5018 17.4627 30.5018C25.886 30.5018 32.7387 23.7761 32.7387 15.5092C32.7387 15.2114 32.7106 14.9206 32.6933 14.6273C32.7499 15.1529 32.7825 15.6854 32.7825 16.2254C32.7825 24.5163 25.91 31.2616 17.4627 31.2616C9.01589 31.2616 2.14382 24.5163 2.14382 16.2254C2.14382 15.6854 2.17595 15.1529 2.23255 14.6273ZM1.50588 15.2785C1.4865 15.5933 1.45692 15.9056 1.45692 16.2254C1.45692 24.8877 8.63699 31.9358 17.4627 31.9358C26.2889 31.9358 33.4689 24.8877 33.4689 16.2254C33.4689 15.9056 33.4393 15.5933 33.42 15.2785C33.4786 15.826 33.5118 16.3806 33.5118 16.9432C33.5118 25.6279 26.3118 32.6941 17.4622 32.6941C8.61303 32.6941 1.41358 25.6274 1.41358 16.9432C1.41409 16.3806 1.44672 15.8255 1.50588 15.2785ZM17.4627 34.121C8.21272 34.121 0.6869 26.7345 0.6869 17.6554C0.6869 17.0768 0.719027 16.5052 0.778691 15.9417C0.758293 16.275 0.727186 16.6053 0.727186 16.9432C0.727186 26.0003 8.23464 33.3682 17.4627 33.3682C26.6912 33.3682 34.1992 26.0003 34.1992 16.9432C34.1992 16.6073 34.1681 16.279 34.1477 15.9482C34.2068 16.5097 34.2384 17.0793 34.2384 17.6559C34.2384 26.7345 26.7126 34.121 17.4627 34.121Z" fill="white"/>
</svg>
